<?xml version="1.0" standalone="no"?>
<!DOCTYPE svg PUBLIC "-//W3C//DTD SVG 1.1//EN" "http://www.w3.org/Graphics/SVG/1.1/DTD/svg11.dtd" >
<svg xmlns="http://www.w3.org/2000/svg" xmlns:xlink="http://www.w3.org/1999/xlink" version="1.1">
<metadata>
Created by FontForge 20161013 at Sat Apr 22 18:57:59 2006
 By ,,,
Copr. Luc as  de Groot 1994
</metadata>
<defs>
<font id="TheMix-5Regular" horiz-adv-x="501" >
  <font-face 
    font-family="TheMix"
    font-weight="400"
    font-stretch="normal"
    units-per-em="1000"
    panose-1="2 0 5 3 5 0 0 2 0 4"
    ascent="800"
    descent="-200"
    x-height="497"
    cap-height="675"
    bbox="-62 -433 1757.6 1169.5"
    underline-thickness="20"
    underline-position="-180"
    unicode-range="U+0020-FB04"
  />
<missing-glyph horiz-adv-x="500" 
 />
    <glyph glyph-name=".notdef" horiz-adv-x="500" 
 />
    <glyph glyph-name=".null" horiz-adv-x="0" 
 />
    <glyph glyph-name="nonmarkingreturn" horiz-adv-x="218" 
 />
    <glyph glyph-name="space" unicode=" " horiz-adv-x="218" 
 />
    <glyph glyph-name="exclam" unicode="!" horiz-adv-x="301" 
d="M204 707h-107l16 -539h76zM150 109q-26 0 -43 -17t-17 -42t17 -42t43 -17t43 17t17 42t-17 42t-43 17z" />
    <glyph glyph-name="quotedbl" unicode="&#x22;" horiz-adv-x="366" 
d="M147 739h-95l14 -230h66zM314 739h-95l14 -230h67z" />
    <glyph glyph-name="numbersign" unicode="#" horiz-adv-x="682" 
d="M624 191v64h-143l20 186h150v64h-144l18 170h-77l-18 -170h-146l18 170h-76l-18 -170h-151v-64h144l-20 -186h-152v-64h145l-20 -191h77l20 191h146l-20 -191h77l20 191h150zM404 255h-146l20 186h146z" />
    <glyph glyph-name="dollar" unicode="$" horiz-adv-x="489" 
d="M435 178q0 49 -21 80.5t-53 52t-69 35t-69 29.5t-53 35.5t-21 52.5q0 16 6.5 32t20.5 28t37.5 19.5t58.5 7.5q26 0 55.5 -4.5t57.5 -13.5l6 80q-46 10 -106 12v101h-67v-105q-36 -6 -65.5 -20.5t-50.5 -36.5t-32.5 -50t-11.5 -61q0 -51 21 -82t52.5 -51.5t68 -34.5
t68 -29t52.5 -35t21 -54q0 -26 -10 -45t-27 -31t-41 -17.5t-51 -5.5q-29 0 -66 6t-64 17l-6 -84q29 -8 59 -11t65 -4v-126h67v130q80 15 124 64.5t44 118.5z" />
    <glyph glyph-name="percent" unicode="%" horiz-adv-x="799" 
d="M360 532q0 43 -12 73t-33 49t-49.5 27.5t-60.5 8.5t-61 -11.5t-51.5 -33t-36 -53.5t-13.5 -74t11.5 -72.5t32 -50t48 -28.5t60.5 -9q32 0 62 11.5t53 34t36.5 55t13.5 73.5zM280 526q0 -48 -22.5 -75.5t-58.5 -27.5q-76 0 -76 102q0 46 22.5 73t55.5 27q40 0 59.5 -23.5
t19.5 -75.5zM662 652l-64 46l-476 -675l64 -46zM745 159q0 43 -12 73t-33 49t-49.5 27.5t-60.5 8.5t-61 -11.5t-51.5 -33t-36 -53.5t-13.5 -74t11.5 -72.5t32 -50t48 -28.5t60.5 -9q32 0 62 11.5t53 34t36.5 55t13.5 73.5zM665 153q0 -48 -22.5 -75.5t-58.5 -27.5
q-76 0 -76 102q0 46 22.5 73t55.5 27q40 0 59.5 -23.5t19.5 -75.5z" />
    <glyph glyph-name="ampersand" unicode="&#x26;" horiz-adv-x="798" 
d="M739 50q-29 20 -62.5 44.5t-70.5 53.5q47 61 70 137.5t19 164.5q-43 2 -89 -0.5t-84 -7.5v-50q19 -2 42 -4.5t40 -5.5q-2 -57 -19.5 -105t-42.5 -81q-30 24 -61 51t-61 55t-57.5 54.5t-49.5 50.5q64 50 93.5 96.5t29.5 100.5q0 60 -41 98t-119 38q-43 0 -76 -12
t-55.5 -33t-34 -49t-11.5 -59q0 -20 4.5 -39t15.5 -40.5t29 -46.5t46 -57q-30 -24 -55.5 -47.5t-43.5 -50t-28.5 -56t-10.5 -64.5q0 -42 14 -77.5t42 -62t69 -41.5t95 -15q83 0 150 26t115 69q31 -26 67 -52.5t73 -52.5zM347 595q0 -38 -22 -70t-64 -67q-41 48 -57 78.5
t-16 55.5q0 35 22.5 56.5t57.5 21.5q42 0 60.5 -21.5t18.5 -53.5zM477 135q-35 -29 -81 -49t-103 -20q-33 0 -60 10.5t-46 28.5t-29 41.5t-10 50.5q0 40 23 76t75 78q22 -24 49 -51t57 -55t62 -56.5t63 -53.5z" />
    <glyph glyph-name="quotesingle" unicode="'" horiz-adv-x="199" 
d="M147 739h-95l14 -230h66z" />
    <glyph glyph-name="parenleft" unicode="(" horiz-adv-x="303" 
d="M293 -193q-135 217 -135 482q0 128 33.5 249t99.5 228h-83q-39 -63 -65 -125.5t-42.5 -123.5t-23.5 -119.5t-7 -113.5t6 -112t22 -116.5t42 -121.5t67 -127h86z" />
    <glyph glyph-name="parenright" unicode=")" horiz-adv-x="303" 
d="M238 285q0 109 -30 232.5t-107 248.5h-85q66 -108 100 -229t34 -249q0 -265 -134 -481h85q40 65 66.5 127t42.5 121.5t22 117t6 112.5z" />
    <glyph glyph-name="asterisk" unicode="*" horiz-adv-x="374" 
d="M330 535l-103 46l103 45l-33 58l-91 -66l12 112h-67l11 -112l-90 66l-34 -58l103 -46l-103 -45l33 -58l90 66l-11 -112h67l-11 112l90 -66z" />
    <glyph glyph-name="plus" unicode="+" horiz-adv-x="563" 
d="M536 220v75h-213v219h-85v-219h-211v-75h211v-220h85v220h213z" />
    <glyph glyph-name="comma" unicode="," horiz-adv-x="228" 
d="M64 -154q58 53 83 101.5t26.5 85t-16 58.5t-45.5 22q-18 0 -31 -9t-19 -22.5t-5 -29t12 -28.5q17 -22 11 -57t-54 -87z" />
    <glyph glyph-name="hyphen" unicode="-" horiz-adv-x="330" 
d="M283 215v72h-236v-72h236z" />
    <glyph glyph-name="period" unicode="." horiz-adv-x="228" 
d="M114 115q-26 0 -44 -18t-18 -44t18 -44t44 -18t44 18t18 44t-18 44t-44 18z" />
    <glyph glyph-name="slash" unicode="/" horiz-adv-x="419" 
d="M385 675h-87l-258 -675h88z" />
    <glyph glyph-name="zero" unicode="0" horiz-adv-x="613" 
d="M562 265q0 54 -15 101.5t-45.5 82t-77 54.5t-110.5 20q-53 0 -100.5 -18.5t-83.5 -54t-57.5 -85.5t-21.5 -113q0 -68 18.5 -117.5t51.5 -81.5t77.5 -47.5t97.5 -15.5q54 0 102.5 19t85 54.5t57.5 86.5t21 115zM471 259q0 -44 -13.5 -79.5t-36.5 -60.5t-53 -38.5
t-64 -13.5q-42 0 -73 15t-50.5 41t-29 61t-9.5 76q0 43 13 78t36 59t53 37t65 13q41 0 71.5 -14.5t50.5 -39.5t30 -59.5t10 -74.5z" />
    <glyph glyph-name="one" unicode="1" horiz-adv-x="338" 
d="M246 0v514h-73l-148 -57l15 -77l113 48v-428h93z" />
    <glyph glyph-name="two" unicode="2" horiz-adv-x="482" 
d="M432 0v81h-78q-38 0 -72 -0.5t-62 -1.5t-46 -2l2 1l105 87q64 52 96 98.5t32 102.5q0 69 -47 113t-139 44q-46 0 -85.5 -10t-72.5 -26l13 -78q22 14 56.5 26t69.5 12q53 0 80 -27.5t27 -69.5q0 -44 -32.5 -80.5t-93.5 -86.5l-132 -111v-72h379z" />
    <glyph glyph-name="three" unicode="3" horiz-adv-x="461" 
d="M406 31q0 64 -36.5 109t-100.5 56v1q54 22 88 65t34 101q0 32 -11.5 60.5t-34.5 50.5t-59.5 34.5t-85.5 12.5q-38 0 -73.5 -7t-69.5 -21l9 -77q26 14 56 22.5t62 8.5q52 0 82 -26.5t30 -73.5q0 -66 -57 -98t-159 -32v-72q52 5 94.5 0t72.5 -20.5t46 -42t16 -63.5
q0 -29 -10.5 -54.5t-31.5 -44t-52.5 -29t-73.5 -10.5q-25 0 -47 4t-40 9l-9 -80q42 -11 88 -11q66 0 116.5 18t85.5 48.5t53 72t18 89.5z" />
    <glyph glyph-name="four" unicode="4" horiz-adv-x="544" 
d="M530 0v81h-120v434h-116l-278 -441l14 -74h291v-192h89v192h120zM322 81h-42h-60q-32 0 -64 -0.5t-53 -0.5l218 347h1v-346z" />
    <glyph glyph-name="five" unicode="5" horiz-adv-x="467" 
d="M417 43q0 45 -16.5 82.5t-48.5 65t-79.5 43t-109.5 15.5v177h233v88h-318v-342q15 1 27 1h27q46 0 81.5 -11t59.5 -30.5t36 -45.5t12 -57t-11.5 -57.5t-34.5 -46t-57.5 -30.5t-80.5 -11q-19 0 -37.5 2t-33.5 5l-8 -82q34 -6 72 -6q63 0 115.5 18t90.5 50t59.5 76t21.5 96
z" />
    <glyph glyph-name="six" unicode="6" horiz-adv-x="582" 
d="M533 230q0 48 -14 86.5t-41 66.5t-65.5 43t-86.5 15q-57 0 -99.5 -22t-65.5 -60l-1 1q2 14 4 22.5t4 16.5q10 51 29.5 93.5t49.5 72.5t71 46.5t95 16.5q14 0 27.5 -1.5t27.5 -3.5v80q-10 1 -24 1.5t-22 0.5q-78 0 -143 -27t-112.5 -80t-74 -133.5t-26.5 -186.5
q0 -136 59.5 -212t165.5 -76q54 0 98.5 18t76.5 49.5t49.5 75.5t17.5 97zM437 217q0 -32 -9.5 -59.5t-26.5 -47.5t-42 -31.5t-56 -11.5q-35 0 -60 13t-41.5 35t-24.5 50.5t-8 59.5q0 26 8.5 50.5t25.5 44t42.5 31t60.5 11.5q62 0 96.5 -38.5t34.5 -106.5z" />
    <glyph glyph-name="seven" unicode="7" horiz-adv-x="459" 
d="M430 438v76h-405v-88h76h94t85 0.5t50 1.5q-58 -132 -111.5 -288t-97.5 -332h102q40 176 93 334.5t114 295.5z" />
    <glyph glyph-name="eight" unicode="8" horiz-adv-x="551" 
d="M493 179q0 36 -12.5 63.5t-33 50t-46 40.5t-52.5 34q67 42 99 84t32 96q0 36 -13.5 65.5t-39.5 51t-63 33.5t-84 12q-48 0 -87.5 -13t-67.5 -36.5t-43.5 -56.5t-15.5 -72q0 -58 33.5 -100t94.5 -77h1q-25 -16 -49.5 -35t-44.5 -42t-32.5 -51t-12.5 -63q0 -38 13.5 -69.5
t40 -54.5t65.5 -36t90 -13q46 0 87.5 12.5t73 36.5t49.5 59t18 81zM387 538q0 -38 -25.5 -68t-82.5 -66h-1q-56 31 -87 60.5t-31 71.5t30 70.5t85 28.5t83.5 -28.5t28.5 -68.5zM398 167q0 -48 -35.5 -74.5t-86.5 -26.5q-58 0 -91 29.5t-33 77.5q0 45 31.5 79t82.5 64h1
q29 -16 53 -32t41.5 -33.5t27 -38t9.5 -45.5z" />
    <glyph glyph-name="nine" unicode="9" horiz-adv-x="582" 
d="M516 232q0 76 -17 130.5t-47.5 90t-72.5 52.5t-92 17q-54 0 -97.5 -18t-75 -50.5t-48.5 -76.5t-17 -95q0 -48 14 -87.5t40.5 -67t64.5 -42.5t86 -15q52 0 94 20.5t66 55.5h1q-2 -11 -4 -26t-4 -25q-24 -103 -83 -157.5t-166 -54.5q-14 0 -32.5 2.5t-32.5 6.5v-83
q15 -3 32 -4.5t28 -1.5q84 0 151 27.5t114 81.5t72.5 134.5t25.5 185.5zM413 281q0 -26 -9.5 -49.5t-27.5 -41.5t-43.5 -28.5t-56.5 -10.5q-63 0 -97.5 38t-34.5 108q0 31 9.5 58t27.5 47.5t42.5 32t54.5 11.5q66 0 100.5 -46.5t34.5 -118.5z" />
    <glyph glyph-name="colon" unicode=":" horiz-adv-x="257" 
d="M129 407q-26 0 -44.5 -18t-18.5 -44t18.5 -44t44.5 -18t44 18t18 44t-18 44t-44 18zM129 115q-26 0 -44.5 -18t-18.5 -44t18.5 -44t44.5 -18t44 18t18 44t-18 44t-44 18z" />
    <glyph glyph-name="semicolon" unicode=";" horiz-adv-x="257" 
d="M191 345q0 26 -18 44t-44 18t-44.5 -18t-18.5 -44t18.5 -44t44.5 -18t44 18t18 44zM128 113q-18 0 -31.5 -9t-19.5 -22.5t-5 -29t12 -28.5q17 -22 11 -57t-54 -87l39 -34q58 53 83 101.5t26.5 85t-16.5 58.5t-45 22z" />
    <glyph glyph-name="less" unicode="&#x3c;" 
d="M56 252l317 -283l57 61l-258 223l258 229l-58 58z" />
    <glyph glyph-name="equal" unicode="=" horiz-adv-x="586" 
d="M514 302v74h-443v-74h443zM514 131v74h-443v-74h443z" />
    <glyph glyph-name="greater" unicode="&#x3e;" 
d="M444 256l-317 283l-57 -61l258 -223l-258 -229l58 -58z" />
    <glyph glyph-name="question" unicode="?" horiz-adv-x="423" 
d="M362 517q0 37 -19 71t-55 60t-87.5 43t-116.5 21l-12 -82q42 -3 77.5 -13t61 -26.5t39.5 -37.5t14 -46q0 -27 -15 -49t-35.5 -43t-43 -44t-37.5 -51.5t-18 -65.5t14 -86h88q-15 46 -10 79t21 59t39 47.5t44 45t36 51.5t15 67zM237 50q0 25 -17 42t-43 17t-43 -17t-17 -42
t17 -42t43 -17t43 17t17 42z" />
    <glyph glyph-name="at" unicode="@" horiz-adv-x="833" 
d="M763 397q0 59 -20.5 112t-61 93t-99.5 63.5t-136 23.5t-145.5 -28.5t-120.5 -79t-82 -120.5t-30 -153q0 -72 22.5 -132.5t65.5 -103.5t105 -67t141 -24q37 0 81 5.5t75 16.5v70q-36 -12 -72.5 -17.5t-73.5 -5.5q-64 0 -113.5 19.5t-83 55t-50.5 84t-17 106.5
q0 67 23 123.5t63 97t93.5 63t114.5 22.5q64 0 109.5 -19t75 -51t43.5 -73t14 -85q0 -84 -27.5 -121t-75.5 -37q-32 0 -45.5 21.5t-3.5 75.5l31 173q-23 5 -52.5 9t-58.5 4q-50 0 -87.5 -18.5t-62.5 -50t-38 -73.5t-13 -89q0 -57 20.5 -87t68.5 -30q24 0 45 8.5t38 22
t29.5 30t18.5 33.5h2q-3 -18 1 -34.5t15.5 -30t30.5 -21.5t47 -8q43 0 79 14t62 42t40.5 70.5t14.5 100.5zM483 454l-8 -40q-16 -81 -46.5 -129t-68.5 -48q-35 0 -35 64q0 24 6.5 51.5t19.5 51.5t33.5 39.5t49.5 15.5q14 0 26.5 -1t22.5 -4z" />
    <glyph glyph-name="A" unicode="A" horiz-adv-x="615" 
d="M606 0l-248 675h-102l-246 -675h94l56 158h287l56 -158h103zM422 231h-238l87 240q10 26 17.5 51.5t13.5 50.5h2q6 -26 13 -50.5t17 -50.5z" />
    <glyph glyph-name="B" unicode="B" horiz-adv-x="570" 
d="M518 202q0 26 -8 51.5t-24.5 46.5t-42.5 36t-61 21v2q55 17 88 60.5t33 96.5q0 76 -53.5 119t-165.5 43q-61 0 -111.5 -1t-87.5 -2v-675q50 -1 96 -2t76 -1q79 0 129.5 20.5t80 51.5t40.5 67t11 66zM408 501q0 -56 -43 -87t-127 -31h-33q-14 0 -28 1v218q20 1 44 1.5
t47 0.5q41 0 68 -7.5t43 -21.5t22.5 -33t6.5 -41zM422 199q0 -56 -38 -91.5t-121 -35.5q-58 0 -86 5v236q12 1 33 1h30q39 0 72.5 -5.5t57.5 -19t38 -35.5t14 -55z" />
    <glyph glyph-name="C" unicode="C" horiz-adv-x="583" 
d="M536 26l-10 82q-30 -15 -72 -24.5t-79 -9.5q-118 0 -173.5 68t-55.5 193q0 55 12.5 103.5t39.5 84.5t68.5 57t99.5 21q75 0 153 -24l10 84q-36 9 -75 14.5t-78 5.5q-86 0 -148 -27.5t-102.5 -76t-60 -114.5t-19.5 -143q0 -71 17.5 -131.5t54.5 -104t95.5 -68t139.5 -24.5
q51 0 98 9t85 25z" />
    <glyph glyph-name="D" unicode="D" horiz-adv-x="678" 
d="M632 345q0 87 -23.5 150t-68 103.5t-108.5 60t-145 19.5q-56 0 -109.5 -1.5t-92.5 -2.5v-674q38 0 79 -2t92 -2q83 0 152 22t119 66t77.5 109t27.5 152zM535 339q0 -69 -20 -119t-55.5 -82.5t-85 -48t-108.5 -15.5q-20 0 -45 1.5t-44 4.5v520q19 1 47 2t54 1
q132 0 194.5 -67t62.5 -197z" />
    <glyph glyph-name="E" unicode="E" 
d="M432 0v77h-255v234h243v74h-243v214h255v76h-347v-675h347z" />
    <glyph glyph-name="F" unicode="F" horiz-adv-x="469" 
d="M429 599v76h-344v-675h92v306h239v74h-239v219h252z" />
    <glyph glyph-name="G" unicode="G" horiz-adv-x="682" 
d="M593 655q-45 14 -91 21.5t-94 7.5q-85 0 -152.5 -27t-115 -75t-72.5 -114t-25 -144t23.5 -140t67.5 -105t105.5 -65.5t138.5 -22.5q56 0 114 10t109 29v314h-91v-255q-27 -8 -56 -13t-63 -5q-57 0 -103 17.5t-79 51.5t-50.5 83t-17.5 112q0 67 21 118t56 84.5t82 50.5
t99 17q47 0 92.5 -9.5t87.5 -26.5z" />
    <glyph glyph-name="H" unicode="H" horiz-adv-x="698" 
d="M613 0v675h-92v-286h-344v286h-92v-675h92v311h344v-311h92z" />
    <glyph glyph-name="I" unicode="I" horiz-adv-x="262" 
d="M177 0v675h-92v-675h92z" />
    <glyph glyph-name="J" unicode="J" horiz-adv-x="329" 
d="M245 176v499h-92v-493q0 -34 -5.5 -55.5t-16 -34t-26 -17.5t-35.5 -5q-19 0 -37 3t-32 8v-80q34 -8 75 -8q92 0 130.5 49.5t38.5 133.5z" />
    <glyph glyph-name="K" unicode="K" horiz-adv-x="584" 
d="M569 0l-296 349l285 326h-113l-268 -318v318h-92v-675h92v334l267 -334h125z" />
    <glyph glyph-name="L" unicode="L" horiz-adv-x="426" 
d="M419 0v79h-242v596h-92v-675h334z" />
    <glyph glyph-name="M" unicode="M" horiz-adv-x="889" 
d="M841 0l-102 675h-114l-147 -431q-12 -36 -20 -64.5t-16 -63.5h-2q-12 58 -38 134l-142 425h-113l-99 -675h94l46 381q6 50 11 91.5t8 83.5h1q6 -33 18 -73t25 -78l137 -405h98l145 434q12 36 20 67t13 55h2q3 -30 8 -69t13 -97l57 -390h97z" />
    <glyph glyph-name="N" unicode="N" horiz-adv-x="707" 
d="M622 0v675h-89v-192q0 -42 0.5 -92t1.5 -99.5t2 -94t3 -75.5q-19 36 -39.5 74t-43.5 74l-251 405h-121v-675h90v217q0 40 -0.5 88t-1.5 95.5t-2.5 89t-2.5 68.5q17 -34 35.5 -68.5t41.5 -71.5l257 -418h120z" />
    <glyph glyph-name="O" unicode="O" horiz-adv-x="705" 
d="M663 345q0 83 -21.5 146.5t-61 106.5t-95 65t-123.5 22q-66 0 -124.5 -24t-102 -69.5t-68.5 -111.5t-25 -150q0 -77 18.5 -139.5t56 -107t94 -69t132.5 -24.5q66 0 124 24t101.5 69.5t69 111.5t25.5 150zM565 334q0 -65 -18 -114t-48 -82t-68.5 -49.5t-79.5 -16.5
q-54 0 -93.5 19.5t-65.5 55.5t-39 86t-13 110q0 64 17.5 112.5t46.5 81.5t67.5 50t80.5 17q102 0 157.5 -69.5t55.5 -200.5z" />
    <glyph glyph-name="P" unicode="P" horiz-adv-x="524" 
d="M492 481q0 91 -62 144.5t-179 53.5q-46 0 -87 -1t-79 -3v-675h92v258q14 -2 27 -2h27q57 0 105 16.5t82.5 46.5t54 71t19.5 91zM396 472q0 -64 -44.5 -101.5t-119.5 -38.5q-14 0 -28 1t-27 3v266q14 1 29 1h35q80 0 117.5 -34t37.5 -97z" />
    <glyph glyph-name="Q" unicode="Q" horiz-adv-x="704" 
d="M663 345q0 83 -21.5 146.5t-61 106.5t-95 65t-123.5 22q-66 0 -124.5 -24t-102 -69.5t-68.5 -111.5t-25 -150q0 -77 18.5 -139.5t56 -107t94 -69t132.5 -24.5q66 0 124 24t101.5 69.5t69 111.5t25.5 150zM703 -185v82q-39 -6 -71.5 -4t-61.5 7t-56.5 12t-57 12t-62.5 7
t-74 -3v-81q53 7 95 -0.5t84.5 -17.5t90.5 -16.5t113 2.5zM565 334q0 -65 -18 -114t-48 -82t-68.5 -49.5t-79.5 -16.5q-54 0 -93.5 19.5t-65.5 55.5t-39 86t-13 110q0 64 17.5 112.5t46.5 81.5t67.5 50t80.5 17q102 0 157.5 -69.5t55.5 -200.5z" />
    <glyph glyph-name="R" unicode="R" horiz-adv-x="553" 
d="M527 0l-191 241q-14 17 -29 35.5t-30 36.5q44 3 82 17t65.5 38t43 58t15.5 77q0 48 -17 81.5t-47.5 54.5t-72.5 30.5t-92 9.5q-56 0 -95 -1t-74 -3v-675h92v303h4l229 -303h117zM387 491q0 -54 -40 -87.5t-113 -33.5q-20 0 -34.5 0.5t-22.5 1.5v230q14 1 29 1.5t32 0.5
q74 0 111.5 -26t37.5 -87z" />
    <glyph glyph-name="S" unicode="S" horiz-adv-x="503" 
d="M451 199q0 53 -22.5 86t-56.5 54.5t-73.5 36t-73.5 30.5t-56.5 38.5t-22.5 58.5q0 48 35.5 76.5t104.5 28.5q30 0 61.5 -5t60.5 -13l5 82q-60 12 -122 12q-57 0 -101.5 -14t-75.5 -39.5t-47 -60.5t-16 -77q0 -54 22.5 -87t56.5 -54.5t73 -35.5t73 -30.5t56.5 -39
t22.5 -60.5q0 -31 -11.5 -53t-32 -36t-47.5 -20.5t-57 -6.5q-35 0 -72.5 7t-66.5 18l-5 -88q29 -8 64 -12t72 -4q59 0 105.5 15.5t79 43t50 66t17.5 83.5z" />
    <glyph glyph-name="T" unicode="T" horiz-adv-x="516" 
d="M499 598v77h-481v-77h194v-598h92v598h195z" />
    <glyph glyph-name="U" unicode="U" horiz-adv-x="693" 
d="M607 258v417h-90v-424q0 -102 -42.5 -143.5t-130.5 -41.5q-51 0 -83.5 13t-51 36t-25.5 53.5t-7 65.5v441h-92v-448q0 -45 10 -87.5t37.5 -76t77 -53.5t128.5 -20q133 0 201 67t68 201z" />
    <glyph glyph-name="V" unicode="V" horiz-adv-x="618" 
d="M605 675h-94l-155 -427q-15 -41 -26 -76t-21 -71h-1q-11 38 -22.5 74.5t-21.5 65.5l-151 434h-102l243 -675h103z" />
    <glyph glyph-name="W" unicode="W" horiz-adv-x="952" 
d="M918 675h-91l-117 -458q-7 -27 -12.5 -54t-10.5 -56h-1q-5 31 -12 62t-15 57l-129 449h-104l-125 -445q-16 -59 -27 -125h-1q-5 33 -11.5 64.5t-15.5 65.5l-114 440h-98l178 -675h110l126 455q17 59 24 116h1q5 -29 11 -58.5t14 -58.5l129 -454h113z" />
    <glyph glyph-name="X" unicode="X" horiz-adv-x="599" 
d="M582 0l-229 351l205 324h-104l-157 -258l-160 258h-106l208 -327l-222 -348h107l171 279l172 -279h115z" />
    <glyph glyph-name="Y" unicode="Y" horiz-adv-x="537" 
d="M527 675h-96l-104 -216q-16 -33 -31 -65.5t-27 -63.5h-1q-23 57 -51 117l-107 228h-101l211 -432v-243h92v243z" />
    <glyph glyph-name="Z" unicode="Z" horiz-adv-x="539" 
d="M495 0v84h-174h-109t-59 -2q11 15 20.5 29.5t19.5 29.5l298 464v70h-435v-82h181q52 0 87.5 0.5t59.5 1.5q-15 -20 -28 -39.5t-27 -41.5l-283 -446v-68h449z" />
    <glyph glyph-name="bracketleft" unicode="[" horiz-adv-x="322" 
d="M284 -199v71h-114v830h114v69h-198v-970h198z" />
    <glyph glyph-name="backslash" unicode="\" horiz-adv-x="409" 
d="M376 0l-261 675h-83l259 -675h85z" />
    <glyph glyph-name="bracketright" unicode="]" horiz-adv-x="322" 
d="M236 -199v970h-198v-69h114v-830h-114v-71h198z" />
    <glyph glyph-name="asciicircum" unicode="^" horiz-adv-x="535" 
d="M472 377l-173 298h-72l-165 -299l61 -33l138 265l144 -265z" />
    <glyph glyph-name="underscore" unicode="_" horiz-adv-x="500" 
d="M500 -252v71h-500v-71h500z" />
    <glyph glyph-name="grave" unicode="`" horiz-adv-x="369" 
d="M283 626l-142 110l-46 -63l151 -99z" />
    <glyph glyph-name="a" unicode="a" horiz-adv-x="539" 
d="M522 7v53q-22 2 -45.5 4.5t-41.5 5.5v271q0 37 -8.5 67.5t-29.5 52.5t-56.5 34t-89.5 12q-50 0 -94 -10.5t-80 -25.5l9 -77q32 20 73.5 30.5t76.5 10.5q62 0 85.5 -27t23.5 -79v-37q-71 0 -126.5 -12.5t-93.5 -35.5t-58.5 -56t-20.5 -74q0 -60 38 -91.5t100 -31.5
t106.5 31t62.5 77h2q-4 -21 -4.5 -47t-0.5 -52q40 -2 87 0t85 7zM345 220q0 -29 -9.5 -57.5t-27.5 -51t-43 -36t-55 -13.5q-35 0 -55.5 18.5t-20.5 50.5q0 17 8.5 34.5t32 31.5t64.5 23t106 9v-9z" />
    <glyph glyph-name="b" unicode="b" horiz-adv-x="566" 
d="M182 730q-44 2 -91.5 0t-85.5 -7v-53q22 -2 45.5 -4.5t41.5 -5.5v-647q40 -11 80 -15.5t91 -4.5q60 0 108.5 19t82 55t51.5 88t18 117q0 115 -47.5 174.5t-136.5 59.5q-57 0 -100.5 -29t-63.5 -82l-1 1q4 19 6 45t2 48v241zM428 264q0 -54 -11.5 -92t-32 -62t-49.5 -35
t-64 -11q-50 0 -89 12v165q0 32 8.5 66t25.5 61.5t42.5 45.5t59.5 18q57 0 83.5 -43.5t26.5 -124.5z" />
    <glyph glyph-name="c" unicode="c" horiz-adv-x="435" 
d="M403 19l-7 78q-24 -13 -55 -20t-63 -7q-41 0 -68.5 13.5t-44 37t-23 55.5t-6.5 68q0 85 37 136t112 51q29 0 56.5 -6t50.5 -15l10 79q-26 8 -55 12t-58 4q-62 0 -108.5 -20t-77.5 -56.5t-46.5 -86.5t-15.5 -110q0 -69 17.5 -114.5t47 -73.5t69 -39.5t84.5 -11.5
q44 0 81.5 8t62.5 18z" />
    <glyph glyph-name="d" unicode="d" horiz-adv-x="576" 
d="M559 7v53q-22 2 -45.5 4.5t-41.5 5.5v660q-44 2 -91.5 0t-85.5 -7v-53q22 -2 45.5 -4.5t41.5 -5.5v-161q-23 2 -43.5 3.5t-40.5 1.5q-59 0 -106.5 -19t-81 -55t-51.5 -88t-18 -117q0 -109 45.5 -171.5t137.5 -62.5q59 0 102.5 30t64.5 81l2 -1q-5 -22 -6.5 -51t-1.5 -50
q42 -2 89 0t85 7zM382 257q0 -33 -8.5 -67t-25.5 -61.5t-42.5 -45.5t-59.5 -18q-57 0 -83.5 43.5t-26.5 124.5q0 54 11.5 92t32 62t49.5 35t65 11q21 0 43 -2.5t45 -8.5v-165z" />
    <glyph glyph-name="e" unicode="e" horiz-adv-x="508" 
d="M462 297q0 43 -11.5 81t-35.5 66.5t-62 45t-90 16.5q-53 0 -94 -19.5t-69.5 -54.5t-43.5 -82.5t-15 -103.5q0 -132 60 -193.5t175 -61.5q94 0 168 31l-8 73q-30 -14 -68.5 -22.5t-76.5 -8.5q-80 0 -120 45t-37 145h325q3 25 3 43zM370 318h-232q8 55 40 88.5t81 33.5
q53 0 83 -33.5t28 -88.5z" />
    <glyph glyph-name="f" unicode="f" horiz-adv-x="350" 
d="M382 727q-41 9 -82 9q-94 0 -142.5 -49.5t-48.5 -152.5v-37h-102v-70h102v-427h90v427h138v70h-138v38q0 66 24 97t78 31q18 0 37 -2.5t36 -8.5z" />
    <glyph glyph-name="g" unicode="g" horiz-adv-x="556" 
d="M472 -38v529q-39 6 -81 10t-87 4q-62 0 -111 -19.5t-82.5 -55.5t-51.5 -88t-18 -117q0 -116 48 -175t137 -59q55 0 98 29.5t63 80.5h2q-4 -20 -5 -41t-1 -46v-39q0 -85 -42 -118t-120 -33q-36 0 -74.5 7.5t-70.5 20.5l-7 -88q30 -8 66 -13.5t78 -5.5q81 0 131.5 20.5
t79 52.5t38.5 70.5t10 73.5zM382 258q0 -33 -8.5 -67.5t-25.5 -62t-42.5 -45.5t-59.5 -18q-57 0 -83.5 43.5t-26.5 124.5q0 54 11.5 92t32 62t49.5 35t65 11q22 0 44 -2.5t44 -7.5v-165z" />
    <glyph glyph-name="h" unicode="h" horiz-adv-x="583" 
d="M92 660v-660h90v239q0 41 10.5 76.5t29.5 61.5t45 40.5t57 14.5q49 0 66.5 -29t17.5 -82v-321h90v348q0 33 -7.5 62t-24.5 50.5t-46 34t-71 12.5q-63 0 -107.5 -30.5t-66.5 -81.5l-1 1q5 20 6.5 47.5t1.5 51.5v235q-44 2 -91.5 0t-85.5 -7v-53q22 -2 45.5 -4.5t41.5 -5.5
z" />
    <glyph glyph-name="i" unicode="i" horiz-adv-x="286" 
d="M216 638q0 25 -17.5 41.5t-42.5 16.5t-42.5 -17t-17.5 -41q0 -25 17.5 -42t42.5 -17t42.5 17.5t17.5 41.5zM201 497q-44 2 -91.5 0t-85.5 -7v-53q22 -2 45.5 -4.5t41.5 -5.5v-427h90v497z" />
    <glyph glyph-name="j" unicode="j" horiz-adv-x="288" 
d="M218 638q0 25 -17.5 41.5t-41.5 16.5q-25 0 -42.5 -17t-17.5 -41q0 -25 17.5 -42t42.5 -17q24 0 41.5 17.5t17.5 41.5zM203 -55v552q-43 2 -90.5 0t-85.5 -7v-53q22 -2 45.5 -4.5t41.5 -5.5v-490q0 -33 -3.5 -55.5t-12.5 -35.5t-24.5 -18.5t-39.5 -5.5q-16 0 -32.5 3.5
t-30.5 8.5l-8 -79q15 -5 33.5 -7t35.5 -2q49 0 81.5 12.5t52.5 37t28.5 62t8.5 87.5z" />
    <glyph glyph-name="k" unicode="k" 
d="M482 0l-206 270l191 227h-110l-175 -218v451q-44 2 -91.5 0t-85.5 -7v-53q22 -2 45.5 -4.5t41.5 -5.5v-660h90v256l184 -256h116z" />
    <glyph glyph-name="l" unicode="l" horiz-adv-x="267" 
d="M182 730q-44 2 -91.5 0t-85.5 -7v-53q22 -2 45.5 -4.5t41.5 -5.5v-660h90v730z" />
    <glyph glyph-name="m" unicode="m" horiz-adv-x="905" 
d="M820 0v344q0 85 -38.5 124t-109.5 39q-36 0 -64.5 -11t-49.5 -28t-35 -36.5t-21 -37.5q-2 15 -8.5 34.5t-22 37t-41.5 29.5t-65 12q-60 0 -105.5 -31t-67.5 -84l-2 1q5 23 6.5 52.5t1.5 51.5q-42 2 -89 0t-85 -7v-53q22 -2 45.5 -4.5t41.5 -5.5v-427h90v237q0 43 11 78.5
t30 61.5t44 40.5t54 14.5q25 0 41 -9t25 -24t12 -35.5t3 -43.5v-320h89v237q0 45 11.5 81t31 61.5t44.5 39t52 13.5q49 0 65 -30.5t16 -82.5v-319h90z" />
    <glyph glyph-name="n" unicode="n" horiz-adv-x="601" 
d="M198 497q-42 2 -89 0t-85 -7v-53q22 -2 45.5 -4.5t41.5 -5.5v-427h90v239q0 41 10.5 76.5t29 61.5t44.5 40.5t57 14.5q50 0 67.5 -29t17.5 -82v-321h90v348q0 33 -7.5 62t-25 50.5t-46 34t-71.5 12.5q-64 0 -108.5 -31.5t-66.5 -83.5l-2 1q5 22 6.5 52t1.5 52z" />
    <glyph glyph-name="o" unicode="o" horiz-adv-x="545" 
d="M505 257q0 67 -17 114.5t-47 77.5t-71 43.5t-89 13.5q-56 0 -101 -20.5t-76.5 -56t-48 -83t-16.5 -102.5q0 -66 16 -113.5t45 -78.5t70 -46t92 -15q55 0 100 20.5t76.5 56.5t49 84.5t17.5 104.5zM411 252q0 -48 -11 -82.5t-30 -57.5t-44 -34t-53 -11q-69 0 -104.5 47.5
t-35.5 138.5q0 46 11.5 79.5t31 55.5t45 32.5t52.5 10.5q69 0 103.5 -47t34.5 -132z" />
    <glyph glyph-name="p" unicode="p" horiz-adv-x="584" 
d="M111 427v-674h90v247q22 -4 41.5 -5t42.5 -1q121 0 188.5 72t67.5 206q0 115 -47 174.5t-135 59.5q-60 0 -103 -29.5t-64 -81.5l-2 1q5 21 6 50.5t1 50.5q-41 2 -88 0t-85 -7v-53q22 -2 45.5 -4.5t41.5 -5.5zM447 264q0 -54 -11.5 -92t-32.5 -62t-50 -35t-64 -11
q-49 0 -88 12v164q0 33 8.5 67t25.5 61.5t42.5 45.5t59.5 18q57 0 83.5 -43.5t26.5 -124.5z" />
    <glyph glyph-name="q" unicode="q" horiz-adv-x="558" 
d="M560 -239v53q-22 2 -45.5 4.5t-41.5 5.5v667q-38 6 -80.5 10t-87.5 4q-124 0 -193 -74.5t-69 -206.5q0 -117 48 -175t136 -58q56 0 99 29.5t63 80.5l2 -1q-5 -23 -6 -47.5t-1 -41.5v-258q43 -2 90.5 0.5t85.5 7.5zM384 258q0 -33 -9 -67.5t-26 -62t-42.5 -45.5t-59.5 -18
q-57 0 -83 43.5t-26 124.5q0 107 43 153.5t114 46.5q46 0 89 -10v-165z" />
    <glyph glyph-name="r" unicode="r" horiz-adv-x="381" 
d="M198 497q-42 2 -89 0t-85 -7v-53q22 -2 45.5 -4.5t41.5 -5.5v-427h90v200q0 120 38 176t117 42l4 88q-37 4 -65.5 -5.5t-49.5 -28t-34.5 -43t-21.5 -50.5h-2q6 31 8.5 63t2.5 55z" />
    <glyph glyph-name="s" unicode="s" horiz-adv-x="425" 
d="M375 149q0 42 -17 66.5t-43 39.5t-56 24t-56 19.5t-43 25.5t-17 42q0 32 24.5 51.5t74.5 19.5q25 0 51 -4t49 -12l2 75q-23 5 -47.5 7.5t-47.5 2.5q-49 0 -86 -11.5t-62 -31.5t-38 -47.5t-13 -58.5q0 -44 17 -69.5t43 -40.5t55.5 -23t55.5 -18t43 -24.5t17 -42.5
q0 -35 -30.5 -55.5t-80.5 -20.5q-29 0 -57.5 4.5t-51.5 12.5l-3 -80q23 -5 50 -7t55 -2q49 0 88.5 12t67 33t42 50t14.5 63z" />
    <glyph glyph-name="t" unicode="t" horiz-adv-x="371" 
d="M334 2v76q-15 -4 -33 -6.5t-35 -2.5q-21 0 -34.5 4.5t-22 16.5t-11.5 32t-3 51v254h139v70h-139v186l-90 -25v-161h-102v-70h102v-286q0 -40 6.5 -68.5t22 -46.5t41 -26t63.5 -8q24 0 49.5 2.5t46.5 7.5z" />
    <glyph glyph-name="u" unicode="u" horiz-adv-x="617" 
d="M600 7v53q-22 2 -45.5 4.5t-41.5 5.5v427h-89v-239q0 -41 -10.5 -76.5t-29.5 -61.5t-45 -40.5t-57 -14.5q-49 0 -67 29t-18 82v321q-42 2 -89.5 0t-86.5 -7v-53q22 -2 45.5 -4.5t41.5 -5.5v-278q0 -33 7 -62t24.5 -50.5t46 -34t71.5 -12.5q64 0 108.5 31.5t66.5 83.5
l2 -1q-4 -23 -6 -52.5t-2 -51.5q42 -2 89 0t85 7z" />
    <glyph glyph-name="v" unicode="v" horiz-adv-x="486" 
d="M478 497h-97l-108 -299q-8 -23 -15 -46t-13 -45h-2q-6 23 -13.5 46.5t-15.5 47.5l-105 296h-101l187 -497h93z" />
    <glyph glyph-name="w" unicode="w" horiz-adv-x="793" 
d="M777 497h-95l-80 -268q-11 -38 -18.5 -67t-15.5 -61h-1q-3 14 -6.5 28t-8 29t-10.5 33.5t-13 41.5l-86 264h-96l-85 -267q-10 -31 -18 -63t-16 -65h-1q-8 29 -17 62t-19 68l-76 265h-99l153 -497h100l83 267q10 32 18.5 62t16.5 63h1q7 -26 13.5 -51t14.5 -48l99 -293
h101z" />
    <glyph glyph-name="x" unicode="x" horiz-adv-x="518" 
d="M498 0l-180 252l171 245h-101l-125 -187l-123 187h-110l174 -248l-183 -249h109l126 191l126 -191h116z" />
    <glyph glyph-name="y" unicode="y" horiz-adv-x="480" 
d="M472 497h-98l-80 -228q-7 -21 -14.5 -42.5t-14 -41.5t-12 -38t-8.5 -31h-2q-8 29 -17 59t-21 64l-94 258h-102l188 -497l-21 -56q-13 -36 -25.5 -59.5t-26.5 -37t-30 -19t-37 -5.5q-34 0 -64 10l-8 -81q15 -2 33 -4t32 -2q41 0 71.5 10t55.5 34t45.5 63t42.5 97z" />
    <glyph glyph-name="z" unicode="z" horiz-adv-x="447" 
d="M396 0v83h-105h-36t-38 -0.5t-35 -1t-26 -0.5l235 353v63h-338v-80h102q41 0 75.5 0.5t55.5 1.5l-238 -356v-63h348z" />
    <glyph glyph-name="braceleft" unicode="{" horiz-adv-x="341" 
d="M309 -199v71q-26 0 -43.5 6t-28 20t-15 37.5t-4.5 58.5v174q0 66 -24 103.5t-69 44.5v2q46 8 69.5 43.5t23.5 102.5v116q0 35 4.5 58.5t15 37.5t28 20t43.5 6v69h-18q-44 0 -74 -14t-48 -39.5t-26 -61.5t-8 -79v-117q0 -30 -5.5 -50.5t-18 -32.5t-32.5 -18t-50 -7v-71
q58 -3 82 -27t24 -83v-175q0 -98 35 -146.5t121 -48.5h18z" />
    <glyph glyph-name="bar" unicode="|" horiz-adv-x="279" 
d="M174 -250v1000h-71v-1000h71z" />
    <glyph glyph-name="braceright" unicode="}" horiz-adv-x="338" 
d="M318 281v71q-30 1 -50 7t-32.5 18.5t-18 33.5t-5.5 53v113q0 43 -8 79t-26 61.5t-48 39.5t-74 14h-18v-69q26 0 43.5 -6t28 -20t15 -37.5t4.5 -58.5v-120q0 -130 93 -142v-2q-45 -7 -69 -44.5t-24 -103.5v-174q0 -35 -4.5 -58.5t-15 -37.5t-28 -20t-43.5 -6v-71h18
q86 0 121 48.5t35 146.5v175q0 59 24 83t82 27z" />
    <glyph glyph-name="asciitilde" unicode="~" horiz-adv-x="579" 
d="M529 264l-30 64q-23 -20 -49.5 -34t-51.5 -14q-31 0 -54.5 10t-47 22t-50 22t-63.5 10q-43 0 -77 -17.5t-57 -37.5l29 -66q17 15 41.5 29t56.5 14q28 0 51.5 -10t48 -22t52 -22t64.5 -10q41 0 76 17.5t61 44.5z" />
    <glyph glyph-name="nonbreakingspace" unicode="&#xa0;" horiz-adv-x="400" 
 />
    <glyph glyph-name="exclamdown" unicode="&#xa1;" horiz-adv-x="301" 
d="M209 448q0 25 -17.5 42t-43.5 17t-43 -17t-17 -42t17 -42t43 -17t43.5 17t17.5 42zM199 -209l-14 539h-75l-13 -539h102z" />
    <glyph glyph-name="cent" unicode="&#xa2;" horiz-adv-x="455" 
d="M413 65l-7 79q-24 -14 -54.5 -22t-62.5 -8q-42 0 -71.5 13t-47.5 35.5t-26 52t-8 63.5q0 80 41.5 124t113.5 44q63 0 112 -25l7 78q-26 10 -52 14.5t-51 5.5v88h-71v-92q-91 -14 -142 -79.5t-51 -162.5q0 -104 49.5 -165t143.5 -70v-106h71v106q30 2 57 9.5t49 17.5z" />
    <glyph glyph-name="sterling" unicode="&#xa3;" horiz-adv-x="494" 
d="M432 0v79h-183q-23 0 -44 -1t-37 -3q24 21 41.5 41t29 42.5t17.5 47.5t6 56q0 14 -1.5 32t-3.5 38h136v69h-143q-4 38 -7.5 72t-3.5 57q0 48 22.5 76t69.5 28q32 0 73 -9l5 74q-19 4 -41 6t-40 2q-87 0 -133 -42.5t-46 -140.5q0 -25 4 -59.5t7 -63.5h-101v-69h109
q3 -34 4.5 -53t1.5 -29q0 -59 -29.5 -100t-86.5 -82v-68h374z" />
    <glyph glyph-name="currency" unicode="&#xa4;" horiz-adv-x="550" 
d="M513 17l-17 72q-23 -9 -57.5 -15t-64.5 -6q-79 0 -119.5 40.5t-53.5 121.5h188v59h-194q0 11 -0.5 22.5t-0.5 23.5t0.5 23t1.5 22h193v58h-187q15 91 58.5 131.5t111.5 40.5q30 0 62 -5t54 -12l16 77q-25 6 -57.5 10.5t-63.5 4.5q-112 0 -182.5 -59t-93.5 -188h-94v-58
h87q-1 -14 -1.5 -29t-0.5 -31v-16q0 -7 1 -15h-86v-59h90q16 -119 76.5 -179.5t175.5 -60.5q42 0 82.5 7t75.5 20z" />
    <glyph glyph-name="yen" unicode="&#xa5;" horiz-adv-x="591" 
d="M557 675h-97l-104 -211q-17 -32 -32 -65.5t-27 -66.5h-1q-20 57 -51 121l-107 222h-100l190 -384h-143v-61h165v-70h-165v-61h165v-99h91v99h164v61h-164v70h164v61h-142z" />
    <glyph glyph-name="section" unicode="&#xa7;" horiz-adv-x="494" 
d="M419 222q0 40 -16 76t-40 68t-52 62t-52 57t-40 53t-16 51q0 38 19.5 59t62.5 21q19 0 34.5 -2t31.5 -7l7 76q-14 3 -32.5 5t-36.5 2q-47 0 -81.5 -13t-56.5 -34.5t-32.5 -50.5t-10.5 -60q0 -24 8 -49.5t21 -42.5q-29 -23 -47.5 -58.5t-18.5 -79.5q0 -40 16 -75.5
t40.5 -67.5t53 -61t53 -56.5t40.5 -54t16 -52.5q0 -35 -21 -58t-69 -23q-19 0 -37.5 3.5t-34.5 8.5l-7 -80q15 -4 35.5 -6.5t38.5 -2.5q51 0 87 14t59 36.5t33.5 51t10.5 56.5t-9.5 54.5t-21.5 44.5q28 23 46.5 58t18.5 77zM336 211q0 -21 -8.5 -41.5t-20.5 -30.5
q-36 39 -64.5 71t-48 58.5t-29.5 50t-10 46.5q0 52 30 74q27 -35 54 -64t48.5 -56t35 -53.5t13.5 -54.5z" />
    <glyph glyph-name="dieresis" unicode="&#xa8;" horiz-adv-x="546" 
d="M414 654q0 23 -15 38.5t-38 15.5t-38.5 -15.5t-15.5 -38.5t15.5 -38t38.5 -15t38 15t15 38zM222 654q0 23 -15 38.5t-38 15.5t-38.5 -15.5t-15.5 -38.5t15.5 -38t38.5 -15t38 15t15 38z" />
    <glyph glyph-name="copyright" unicode="&#xa9;" horiz-adv-x="756" 
d="M376 669q-70 0 -131 -26t-106.5 -71.5t-72 -106.5t-26.5 -131t26 -131t71 -106t106.5 -71t132.5 -26q70 0 131 26.5t106.5 72t72 106.5t26.5 131t-26 130.5t-71.5 105.5t-107 71t-131.5 26zM376 601q55 0 103.5 -21t84.5 -57.5t56.5 -85t20.5 -103.5t-20.5 -103.5
t-56.5 -84.5t-84.5 -57t-103.5 -21t-103 21t-84 57.5t-56.5 85.5t-20.5 104t20.5 103.5t56.5 84.5t84 56.5t103 20.5zM475 175l-10 62q-36 -15 -78 -15q-48 0 -70 28.5t-22 82.5q0 25 5 47t16.5 38t30 25t44.5 9q40 0 72 -16l8 64q-17 6 -36.5 9.5t-42.5 3.5q-47 0 -80 -15
t-54 -40.5t-30.5 -58.5t-9.5 -69q0 -38 9 -69.5t28.5 -54t49.5 -35.5t71 -13q53 0 99 17z" />
    <glyph glyph-name="ordfeminine" unicode="&#xaa;" horiz-adv-x="404" 
d="M381 349v48q-14 2 -29.5 3.5t-29.5 3.5v38t0.5 45.5t0.5 45.5v39q0 21 -6.5 41t-21.5 35.5t-40 25t-62 9.5q-35 0 -67 -5.5t-58 -15.5l7 -66q23 11 50.5 18.5t56.5 7.5q21 0 34 -5.5t19.5 -14.5t8.5 -19.5t2 -20.5v-18q-91 0 -144.5 -32.5t-53.5 -89.5q0 -38 25 -62
t77 -24q34 0 62.5 18.5t38.5 42.5l1 -1q-5 -28 -5 -53q32 -2 68.5 0t65.5 6zM246 484q0 -11 -4.5 -26t-14 -28.5t-25 -23.5t-36.5 -10q-20 0 -31 10.5t-11 27.5q0 28 28 43.5t94 15.5v-9z" />
    <glyph glyph-name="guillemotleft" unicode="&#xab;" horiz-adv-x="509" 
d="M237 390l-68 38l-115 -182l112 -179l70 38l-94 142zM437 388l-66 38l-124 -180l121 -177l68 39l-101 139z" />
    <glyph glyph-name="logicalnot" unicode="&#xac;" horiz-adv-x="528" 
d="M478 69v231h-441v-74h362v-157h79z" />
    <glyph glyph-name="registered" unicode="&#xae;" horiz-adv-x="562" 
d="M373 418l-43 73q-5 9 -10 17t-9 13q24 5 38.5 21t14.5 44q0 27 -18 43.5t-60 16.5h-79v-228h49v95h4l53 -95h60zM312 580q0 -13 -9.5 -24t-32.5 -11h-14v63h21q20 0 27.5 -7t7.5 -21zM281 693q33 0 62.5 -13t51 -35.5t34 -52.5t12.5 -63t-12.5 -62.5t-34 -51t-51 -34.5
t-62.5 -13t-62.5 13t-51 35.5t-34 52.5t-12.5 63t12.5 62.5t34 51.5t51 34.5t62.5 12.5zM281 750q-46 0 -86 -17t-70 -47t-47.5 -70t-17.5 -85q0 -46 17 -86t47 -69.5t70 -46.5t87 -17q45 0 85 17.5t70 47t47.5 69.5t17.5 85q0 46 -17 86t-47 69.5t-70 46.5t-86 17z" />
    <glyph glyph-name="macron" unicode="&#xaf;" horiz-adv-x="385" 
d="M300 617v67h-221v-67h221z" />
    <glyph glyph-name="macron" unicode="&#x2c9;" horiz-adv-x="385" 
d="M300 617v67h-221v-67h221z" />
    <glyph glyph-name="degree" unicode="&#xb0;" horiz-adv-x="376" 
d="M319 611q0 25 -8 48t-24 40.5t-40.5 27.5t-58.5 10q-25 0 -49.5 -8.5t-43.5 -25t-30.5 -40.5t-11.5 -54q0 -58 34.5 -92t94.5 -34q26 0 51 8.5t44 25t30.5 40.5t11.5 54zM249 610q0 -30 -18 -49t-46 -19q-27 0 -44 18t-17 50q0 31 18 50t44 19q18 0 30 -6.5t19.5 -16.5
t10.5 -22t3 -24z" />
    <glyph glyph-name="plusminus" unicode="&#xb1;" horiz-adv-x="574" 
d="M528 273v75h-198v199h-86v-199h-198v-75h198v-201h86v201h198zM523 -62v76h-472v-76h472z" />
    <glyph glyph-name="acute" unicode="&#xb4;" horiz-adv-x="389" 
d="M286 674l-45 62l-142 -111l36 -50z" />
    <glyph glyph-name="mu" unicode="&#xb5;" horiz-adv-x="617" 
d="M530 0v497h-90v-239q0 -41 -10 -76.5t-28.5 -61.5t-46 -41t-61.5 -15q-57 0 -87 28.5t-30 90.5v314h-90v-744h90v169q0 42 -0.5 68t-2.5 40l1 1q12 -14 39.5 -26.5t65.5 -12.5q40 0 69 11t49 27.5t32 36t18 37.5l1 -1q-3 -24 -5 -53t-2 -50h88z" />
    <glyph glyph-name="mu" unicode="&#x3bc;" horiz-adv-x="617" 
d="M530 0v497h-90v-239q0 -41 -10 -76.5t-28.5 -61.5t-46 -41t-61.5 -15q-57 0 -87 28.5t-30 90.5v314h-90v-744h90v169q0 42 -0.5 68t-2.5 40l1 1q12 -14 39.5 -26.5t65.5 -12.5q40 0 69 11t49 27.5t32 36t18 37.5l1 -1q-3 -24 -5 -53t-2 -50h88z" />
    <glyph glyph-name="paragraph" unicode="&#xb6;" horiz-adv-x="576" 
d="M364 -26h-73v-70h154v701h71v70h-152v-701zM289 675q-50 0 -91 -16t-70.5 -44t-45.5 -67t-16 -85q0 -44 13.5 -83t41 -68.5t69.5 -47t99 -17.5v428z" />
    <glyph glyph-name="periodcentered" unicode="&#xb7;" horiz-adv-x="234" 
d="M117 352q-27 0 -45.5 -18.5t-18.5 -45.5t18.5 -45.5t45.5 -18.5t45.5 18.5t18.5 45.5t-18.5 45.5t-45.5 18.5z" />
    <glyph glyph-name="cedilla" unicode="&#xb8;" horiz-adv-x="400" 
d="M281 -51h-87q23 -42 14.5 -80.5t-56.5 -73.5l41 -37q41 22 64 46t32 48t6 48.5t-14 48.5z" />
    <glyph glyph-name="ordmasculine" unicode="&#xba;" horiz-adv-x="419" 
d="M367 518q0 49 -13.5 81t-35 51t-49.5 26.5t-57 7.5q-36 0 -66 -13t-51.5 -36t-34 -56t-12.5 -73q0 -46 11 -78t31 -52.5t48 -29.5t61 -9q37 0 67.5 13t53 36.5t35 57t12.5 74.5zM289 512q0 -57 -24 -83.5t-60 -26.5q-23 0 -38.5 9.5t-24.5 25.5t-13 35.5t-4 40.5
q0 28 7.5 48t19 33t26.5 19t30 6q23 0 38.5 -9t25 -23.5t13.5 -34t4 -40.5z" />
    <glyph glyph-name="guillemotright" unicode="&#xbb;" horiz-adv-x="509" 
d="M273 104l67 -37l115 182l-112 179l-70 -39l94 -141zM72 107l66 -38l125 180l-122 177l-68 -39l101 -139z" />
    <glyph glyph-name="questiondown" unicode="&#xbf;" horiz-adv-x="423" 
d="M305 448q0 25 -17 42t-43 17t-43.5 -17t-17.5 -42t17.5 -42t43.5 -17t43 17t17 42zM349 -132q-42 3 -77 13t-60.5 26.5t-39.5 37.5t-14 46q0 27 15 49t35.5 43.5t42.5 44t37 51t18 65.5t-14 86h-88q15 -46 10.5 -79t-21 -59t-39.5 -47.5t-44 -45t-36 -51.5t-15 -67
q0 -37 19 -71t55 -60t88 -43t117 -21z" />
    <glyph glyph-name="Agrave" unicode="&#xc0;" horiz-adv-x="615" 
d="M606 0l-248 675h-102l-246 -675h94l56 158h287l56 -158h103zM422 231h-238l87 240q10 26 17.5 51.5t13.5 50.5h2q6 -26 13 -50.5t17 -50.5zM363 779l-142 110l-46 -63l151 -99z" />
    <glyph glyph-name="Aacute" unicode="&#xc1;" horiz-adv-x="615" 
d="M606 0l-248 675h-102l-246 -675h94l56 158h287l56 -158h103zM422 231h-238l87 240q10 26 17.5 51.5t13.5 50.5h2q6 -26 13 -50.5t17 -50.5zM422 827l-45 62l-142 -111l36 -50z" />
    <glyph glyph-name="Acircumflex" unicode="&#xc2;" horiz-adv-x="615" 
d="M606 0l-248 675h-102l-246 -675h94l56 158h287l56 -158h103zM422 231h-238l87 240q10 26 17.5 51.5t13.5 50.5h2q6 -26 13 -50.5t17 -50.5zM448 786l-141 91l-136 -93l33 -52l102 68l106 -68z" />
    <glyph glyph-name="Atilde" unicode="&#xc3;" horiz-adv-x="615" 
d="M606 0l-248 675h-102l-246 -675h94l56 158h287l56 -158h103zM422 231h-238l87 240q10 26 17.5 51.5t13.5 50.5h2q6 -26 13 -50.5t17 -50.5zM475 787l-21 61q-14 -14 -31 -23t-38 -9q-20 0 -36 7.5t-31.5 16t-34 16t-43.5 7.5q-28 0 -53 -11.5t-43 -29.5l21 -60
q14 14 30.5 23t36.5 9q21 0 37 -7.5t31.5 -16t34 -16t45.5 -7.5q29 0 54.5 12.5t40.5 27.5z" />
    <glyph glyph-name="Adieresis" unicode="&#xc4;" horiz-adv-x="615" 
d="M606 0l-248 675h-102l-246 -675h94l56 158h287l56 -158h103zM422 231h-238l87 240q10 26 17.5 51.5t13.5 50.5h2q6 -26 13 -50.5t17 -50.5zM456 793q0 23 -15 38.5t-38 15.5t-38.5 -15.5t-15.5 -38.5t15.5 -38t38.5 -15t38 15t15 38zM264 793q0 23 -15 38.5t-38 15.5
t-38.5 -15.5t-15.5 -38.5t15.5 -38t38.5 -15t38 15t15 38z" />
    <glyph glyph-name="Aring" unicode="&#xc5;" horiz-adv-x="615" 
d="M606 0l-248 675h-102l-246 -675h94l56 158h287l56 -158h103zM422 231h-238l87 240q10 26 17.5 51.5t13.5 50.5h2q6 -26 13 -50.5t17 -50.5zM422 770q0 24 -9 44t-24 34.5t-36 23t-45 8.5q-23 0 -43.5 -8.5t-36 -23t-24.5 -34.5t-9 -44q0 -48 32.5 -78.5t80.5 -30.5
q24 0 44.5 8.5t36 23.5t24.5 34.5t9 42.5zM364 770q0 -23 -16.5 -39.5t-39.5 -16.5t-39 16.5t-16 39.5t16 40t39 17t39.5 -17t16.5 -40z" />
    <glyph glyph-name="AE" unicode="&#xc6;" horiz-adv-x="781" 
d="M711 0v77h-259v234h240v74h-240v214h250v76h-386l-359 -675h96l85 163h224v-163h349zM362 236h-190l122 225q25 46 39 77t27 60h2v-362z" />
    <glyph glyph-name="Ccedilla" unicode="&#xc7;" horiz-adv-x="583" 
d="M536 26l-10 82q-30 -15 -72 -24.5t-79 -9.5q-118 0 -173.5 68t-55.5 193q0 55 12.5 103.5t39.5 84.5t68.5 57t99.5 21q75 0 153 -24l10 84q-36 9 -75 14.5t-78 5.5q-86 0 -148 -27.5t-102.5 -76t-60 -114.5t-19.5 -143q0 -71 17.5 -131.5t54.5 -104t95.5 -68t139.5 -24.5
q51 0 98 9t85 25zM380 -51h-87q23 -42 14.5 -80.5t-56.5 -73.5l41 -37q41 22 64 46t32 48t6 48.5t-14 48.5z" />
    <glyph glyph-name="Egrave" unicode="&#xc8;" 
d="M432 0v77h-255v234h243v74h-243v214h255v76h-347v-675h347zM324 779l-142 110l-46 -63l151 -99z" />
    <glyph glyph-name="Eacute" unicode="&#xc9;" 
d="M432 0v77h-255v234h243v74h-243v214h255v76h-347v-675h347zM376 827l-45 62l-142 -111l36 -50z" />
    <glyph glyph-name="Ecircumflex" unicode="&#xca;" 
d="M432 0v77h-255v234h243v74h-243v214h255v76h-347v-675h347zM394 786l-141 91l-136 -93l33 -52l102 68l106 -68z" />
    <glyph glyph-name="Edieresis" unicode="&#xcb;" 
d="M432 0v77h-255v234h243v74h-243v214h255v76h-347v-675h347zM404 793q0 23 -15 38.5t-38 15.5t-38.5 -15.5t-15.5 -38.5t15.5 -38t38.5 -15t38 15t15 38zM212 793q0 23 -15 38.5t-38 15.5t-38.5 -15.5t-15.5 -38.5t15.5 -38t38.5 -15t38 15t15 38z" />
    <glyph glyph-name="Igrave" unicode="&#xcc;" horiz-adv-x="262" 
d="M204 778l-142 111l-46 -63l151 -99zM177 0v675h-92v-675h92z" />
    <glyph glyph-name="Iacute" unicode="&#xcd;" horiz-adv-x="262" 
d="M240 826l-45 63l-142 -111l36 -51zM177 0v675h-92v-675h92z" />
    <glyph glyph-name="Icircumflex" unicode="&#xce;" horiz-adv-x="262" 
d="M273 786l-141 91l-137 -93l34 -52l102 68l106 -68zM177 0v675h-92v-675h92z" />
    <glyph glyph-name="Idieresis" unicode="&#xcf;" horiz-adv-x="262" 
d="M280 793q0 23 -15.5 38.5t-38.5 15.5t-38.5 -15.5t-15.5 -38.5t15.5 -38.5t38.5 -15.5t38.5 15.5t15.5 38.5zM88 793q0 23 -15.5 38.5t-38.5 15.5t-38.5 -15.5t-15.5 -38.5t15.5 -38.5t38.5 -15.5t38.5 15.5t15.5 38.5zM177 0v675h-92v-675h92z" />
    <glyph glyph-name="Ntilde" unicode="&#xd1;" horiz-adv-x="707" 
d="M622 0v675h-89v-192q0 -42 0.5 -92t1.5 -99.5t2 -94t3 -75.5q-19 36 -39.5 74t-43.5 74l-251 405h-121v-675h90v217q0 40 -0.5 88t-1.5 95.5t-2.5 89t-2.5 68.5q17 -34 35.5 -68.5t41.5 -71.5l257 -418h120zM515 787l-21 61q-14 -14 -31 -23t-38 -9q-20 0 -36 7.5
t-31.5 16t-34 16t-43.5 7.5q-28 0 -53 -11.5t-43 -29.5l21 -60q14 14 30.5 23t36.5 9q21 0 37 -7.5t31.5 -16t34 -16t45.5 -7.5q29 0 54.5 12.5t40.5 27.5z" />
    <glyph glyph-name="Ograve" unicode="&#xd2;" horiz-adv-x="705" 
d="M663 345q0 83 -21.5 146.5t-61 106.5t-95 65t-123.5 22q-66 0 -124.5 -24t-102 -69.5t-68.5 -111.5t-25 -150q0 -77 18.5 -139.5t56 -107t94 -69t132.5 -24.5q66 0 124 24t101.5 69.5t69 111.5t25.5 150zM565 334q0 -65 -18 -114t-48 -82t-68.5 -49.5t-79.5 -16.5
q-54 0 -93.5 19.5t-65.5 55.5t-39 86t-13 110q0 64 17.5 112.5t46.5 81.5t67.5 50t80.5 17q102 0 157.5 -69.5t55.5 -200.5zM421 779l-142 110l-46 -63l151 -99z" />
    <glyph glyph-name="Oacute" unicode="&#xd3;" horiz-adv-x="705" 
d="M663 345q0 83 -21.5 146.5t-61 106.5t-95 65t-123.5 22q-66 0 -124.5 -24t-102 -69.5t-68.5 -111.5t-25 -150q0 -77 18.5 -139.5t56 -107t94 -69t132.5 -24.5q66 0 124 24t101.5 69.5t69 111.5t25.5 150zM565 334q0 -65 -18 -114t-48 -82t-68.5 -49.5t-79.5 -16.5
q-54 0 -93.5 19.5t-65.5 55.5t-39 86t-13 110q0 64 17.5 112.5t46.5 81.5t67.5 50t80.5 17q102 0 157.5 -69.5t55.5 -200.5zM486 827l-45 62l-142 -111l36 -50z" />
    <glyph glyph-name="Ocircumflex" unicode="&#xd4;" horiz-adv-x="705" 
d="M663 345q0 83 -21.5 146.5t-61 106.5t-95 65t-123.5 22q-66 0 -124.5 -24t-102 -69.5t-68.5 -111.5t-25 -150q0 -77 18.5 -139.5t56 -107t94 -69t132.5 -24.5q66 0 124 24t101.5 69.5t69 111.5t25.5 150zM565 334q0 -65 -18 -114t-48 -82t-68.5 -49.5t-79.5 -16.5
q-54 0 -93.5 19.5t-65.5 55.5t-39 86t-13 110q0 64 17.5 112.5t46.5 81.5t67.5 50t80.5 17q102 0 157.5 -69.5t55.5 -200.5zM498 786l-141 91l-136 -93l33 -52l102 68l106 -68z" />
    <glyph glyph-name="Otilde" unicode="&#xd5;" horiz-adv-x="705" 
d="M663 345q0 83 -21.5 146.5t-61 106.5t-95 65t-123.5 22q-66 0 -124.5 -24t-102 -69.5t-68.5 -111.5t-25 -150q0 -77 18.5 -139.5t56 -107t94 -69t132.5 -24.5q66 0 124 24t101.5 69.5t69 111.5t25.5 150zM565 334q0 -65 -18 -114t-48 -82t-68.5 -49.5t-79.5 -16.5
q-54 0 -93.5 19.5t-65.5 55.5t-39 86t-13 110q0 64 17.5 112.5t46.5 81.5t67.5 50t80.5 17q102 0 157.5 -69.5t55.5 -200.5zM520 788l-21 61q-14 -14 -31 -23t-38 -9q-20 0 -36 7.5t-31.5 16t-34 16t-43.5 7.5q-28 0 -53 -11.5t-43 -29.5l21 -60q14 14 30.5 23t36.5 9
q21 0 37 -7.5t31.5 -16t34 -16t45.5 -7.5q29 0 54.5 12.5t40.5 27.5z" />
    <glyph glyph-name="Odieresis" unicode="&#xd6;" horiz-adv-x="705" 
d="M663 345q0 83 -21.5 146.5t-61 106.5t-95 65t-123.5 22q-66 0 -124.5 -24t-102 -69.5t-68.5 -111.5t-25 -150q0 -77 18.5 -139.5t56 -107t94 -69t132.5 -24.5q66 0 124 24t101.5 69.5t69 111.5t25.5 150zM565 334q0 -65 -18 -114t-48 -82t-68.5 -49.5t-79.5 -16.5
q-54 0 -93.5 19.5t-65.5 55.5t-39 86t-13 110q0 64 17.5 112.5t46.5 81.5t67.5 50t80.5 17q102 0 157.5 -69.5t55.5 -200.5zM503 793q0 23 -15 38.5t-38 15.5t-38.5 -15.5t-15.5 -38.5t15.5 -38t38.5 -15t38 15t15 38zM311 793q0 23 -15 38.5t-38 15.5t-38.5 -15.5
t-15.5 -38.5t15.5 -38t38.5 -15t38 15t15 38z" />
    <glyph glyph-name="Oslash" unicode="&#xd8;" horiz-adv-x="705" 
d="M660 341q0 124 -42.5 202.5t-118.5 113.5l35 94l-68 23l-36 -97q-35 8 -72 8q-66 0 -124 -23.5t-101 -68.5t-67.5 -111t-24.5 -150q0 -108 36 -189.5t116 -121.5l-38 -102l69 -22l37 102q36 -9 78 -9q68 0 127 23.5t102 68.5t67.5 110t24.5 149zM566 332
q0 -63 -16.5 -111.5t-45 -81.5t-67 -50.5t-82.5 -18.5q-17 0 -33.5 1.5t-32.5 6.5l179 491q50 -30 74 -92t24 -145zM403 597l-180 -487q-48 33 -68 92.5t-20 137.5q0 62 16 110t43.5 81t63.5 51t77 20q20 1 36 -0.5t32 -4.5z" />
    <glyph glyph-name="Ugrave" unicode="&#xd9;" horiz-adv-x="693" 
d="M607 258v417h-90v-424q0 -102 -42.5 -143.5t-130.5 -41.5q-51 0 -83.5 13t-51 36t-25.5 53.5t-7 65.5v441h-92v-448q0 -45 10 -87.5t37.5 -76t77 -53.5t128.5 -20q133 0 201 67t68 201zM412 779l-142 110l-46 -63l151 -99z" />
    <glyph glyph-name="Uacute" unicode="&#xda;" horiz-adv-x="693" 
d="M607 258v417h-90v-424q0 -102 -42.5 -143.5t-130.5 -41.5q-51 0 -83.5 13t-51 36t-25.5 53.5t-7 65.5v441h-92v-448q0 -45 10 -87.5t37.5 -76t77 -53.5t128.5 -20q133 0 201 67t68 201zM466 827l-45 62l-142 -111l36 -50z" />
    <glyph glyph-name="Ucircumflex" unicode="&#xdb;" horiz-adv-x="693" 
d="M607 258v417h-90v-424q0 -102 -42.5 -143.5t-130.5 -41.5q-51 0 -83.5 13t-51 36t-25.5 53.5t-7 65.5v441h-92v-448q0 -45 10 -87.5t37.5 -76t77 -53.5t128.5 -20q133 0 201 67t68 201zM484 786l-141 91l-136 -93l33 -52l102 68l106 -68z" />
    <glyph glyph-name="Udieresis" unicode="&#xdc;" horiz-adv-x="693" 
d="M607 258v417h-90v-424q0 -102 -42.5 -143.5t-130.5 -41.5q-51 0 -83.5 13t-51 36t-25.5 53.5t-7 65.5v441h-92v-448q0 -45 10 -87.5t37.5 -76t77 -53.5t128.5 -20q133 0 201 67t68 201zM486 793q0 23 -15 38.5t-38 15.5t-38.5 -15.5t-15.5 -38.5t15.5 -38t38.5 -15t38 15
t15 38zM294 793q0 23 -15 38.5t-38 15.5t-38.5 -15.5t-15.5 -38.5t15.5 -38t38.5 -15t38 15t15 38z" />
    <glyph glyph-name="germandbls" unicode="&#xdf;" horiz-adv-x="593" 
d="M552 149q0 38 -14.5 64t-36.5 44.5t-48 32.5t-48 28t-36.5 31.5t-14.5 43.5q0 22 10.5 37t25.5 27.5t33.5 24t33.5 27t25.5 38t10.5 56.5q0 60 -47 97.5t-135 37.5q-47 0 -88 -13t-71.5 -41.5t-48.5 -73.5t-18 -110v-500h90v505q0 86 35 124.5t96 38.5q42 0 68.5 -18
t26.5 -55q0 -23 -10 -39.5t-25.5 -30t-33.5 -26.5t-33.5 -28.5t-25.5 -36.5t-10 -51q0 -39 14.5 -65t36.5 -44.5t47.5 -32t47.5 -27.5t36.5 -31.5t14.5 -44.5q0 -29 -25.5 -52.5t-82.5 -23.5q-23 0 -48.5 5t-45.5 13l-4 -79q19 -5 44.5 -8t54.5 -3q46 0 82.5 12t62.5 33
t40 50t14 64z" />
    <glyph glyph-name="agrave" unicode="&#xe0;" horiz-adv-x="539" 
d="M522 7v53q-22 2 -45.5 4.5t-41.5 5.5v271q0 37 -8.5 67.5t-29.5 52.5t-56.5 34t-89.5 12q-50 0 -94 -10.5t-80 -25.5l9 -77q32 20 73.5 30.5t76.5 10.5q62 0 85.5 -27t23.5 -79v-37q-71 0 -126.5 -12.5t-93.5 -35.5t-58.5 -56t-20.5 -74q0 -60 38 -91.5t100 -31.5
t106.5 31t62.5 77h2q-4 -21 -4.5 -47t-0.5 -52q40 -2 87 0t85 7zM345 220q0 -29 -9.5 -57.5t-27.5 -51t-43 -36t-55 -13.5q-35 0 -55.5 18.5t-20.5 50.5q0 17 8.5 34.5t32 31.5t64.5 23t106 9v-9zM328 626l-142 110l-46 -63l151 -99z" />
    <glyph glyph-name="aacute" unicode="&#xe1;" horiz-adv-x="539" 
d="M522 7v53q-22 2 -45.5 4.5t-41.5 5.5v271q0 37 -8.5 67.5t-29.5 52.5t-56.5 34t-89.5 12q-50 0 -94 -10.5t-80 -25.5l9 -77q32 20 73.5 30.5t76.5 10.5q62 0 85.5 -27t23.5 -79v-37q-71 0 -126.5 -12.5t-93.5 -35.5t-58.5 -56t-20.5 -74q0 -60 38 -91.5t100 -31.5
t106.5 31t62.5 77h2q-4 -21 -4.5 -47t-0.5 -52q40 -2 87 0t85 7zM345 220q0 -29 -9.5 -57.5t-27.5 -51t-43 -36t-55 -13.5q-35 0 -55.5 18.5t-20.5 50.5q0 17 8.5 34.5t32 31.5t64.5 23t106 9v-9zM381 674l-45 62l-142 -111l36 -50z" />
    <glyph glyph-name="acircumflex" unicode="&#xe2;" horiz-adv-x="539" 
d="M522 7v53q-22 2 -45.5 4.5t-41.5 5.5v271q0 37 -8.5 67.5t-29.5 52.5t-56.5 34t-89.5 12q-50 0 -94 -10.5t-80 -25.5l9 -77q32 20 73.5 30.5t76.5 10.5q62 0 85.5 -27t23.5 -79v-37q-71 0 -126.5 -12.5t-93.5 -35.5t-58.5 -56t-20.5 -74q0 -60 38 -91.5t100 -31.5
t106.5 31t62.5 77h2q-4 -21 -4.5 -47t-0.5 -52q40 -2 87 0t85 7zM345 220q0 -29 -9.5 -57.5t-27.5 -51t-43 -36t-55 -13.5q-35 0 -55.5 18.5t-20.5 50.5q0 17 8.5 34.5t32 31.5t64.5 23t106 9v-9zM396 633l-141 91l-136 -93l33 -52l102 68l106 -68z" />
    <glyph glyph-name="atilde" unicode="&#xe3;" horiz-adv-x="539" 
d="M522 7v53q-22 2 -45.5 4.5t-41.5 5.5v271q0 37 -8.5 67.5t-29.5 52.5t-56.5 34t-89.5 12q-50 0 -94 -10.5t-80 -25.5l9 -77q32 20 73.5 30.5t76.5 10.5q62 0 85.5 -27t23.5 -79v-37q-71 0 -126.5 -12.5t-93.5 -35.5t-58.5 -56t-20.5 -74q0 -60 38 -91.5t100 -31.5
t106.5 31t62.5 77h2q-4 -21 -4.5 -47t-0.5 -52q40 -2 87 0t85 7zM345 220q0 -29 -9.5 -57.5t-27.5 -51t-43 -36t-55 -13.5q-35 0 -55.5 18.5t-20.5 50.5q0 17 8.5 34.5t32 31.5t64.5 23t106 9v-9zM417 634l-21 61q-14 -14 -31 -23t-38 -9q-20 0 -36 7.5t-31.5 16t-34 16
t-43.5 7.5q-28 0 -53 -11.5t-43 -29.5l21 -60q14 14 30.5 23t36.5 9q21 0 37 -7.5t31.5 -16t34 -16t45.5 -7.5q29 0 54.5 12.5t40.5 27.5z" />
    <glyph glyph-name="adieresis" unicode="&#xe4;" horiz-adv-x="539" 
d="M522 7v53q-22 2 -45.5 4.5t-41.5 5.5v271q0 37 -8.5 67.5t-29.5 52.5t-56.5 34t-89.5 12q-50 0 -94 -10.5t-80 -25.5l9 -77q32 20 73.5 30.5t76.5 10.5q62 0 85.5 -27t23.5 -79v-37q-71 0 -126.5 -12.5t-93.5 -35.5t-58.5 -56t-20.5 -74q0 -60 38 -91.5t100 -31.5
t106.5 31t62.5 77h2q-4 -21 -4.5 -47t-0.5 -52q40 -2 87 0t85 7zM345 220q0 -29 -9.5 -57.5t-27.5 -51t-43 -36t-55 -13.5q-35 0 -55.5 18.5t-20.5 50.5q0 17 8.5 34.5t32 31.5t64.5 23t106 9v-9zM405 654q0 23 -15 38.5t-38 15.5t-38.5 -15.5t-15.5 -38.5t15.5 -38
t38.5 -15t38 15t15 38zM213 654q0 23 -15 38.5t-38 15.5t-38.5 -15.5t-15.5 -38.5t15.5 -38t38.5 -15t38 15t15 38z" />
    <glyph glyph-name="aring" unicode="&#xe5;" horiz-adv-x="539" 
d="M522 7v53q-22 2 -45.5 4.5t-41.5 5.5v271q0 37 -8.5 67.5t-29.5 52.5t-56.5 34t-89.5 12q-50 0 -94 -10.5t-80 -25.5l9 -77q32 20 73.5 30.5t76.5 10.5q62 0 85.5 -27t23.5 -79v-37q-71 0 -126.5 -12.5t-93.5 -35.5t-58.5 -56t-20.5 -74q0 -60 38 -91.5t100 -31.5
t106.5 31t62.5 77h2q-4 -21 -4.5 -47t-0.5 -52q40 -2 87 0t85 7zM345 220q0 -29 -9.5 -57.5t-27.5 -51t-43 -36t-55 -13.5q-35 0 -55.5 18.5t-20.5 50.5q0 17 8.5 34.5t32 31.5t64.5 23t106 9v-9zM371 662q0 24 -9 44t-24 34.5t-36 23t-45 8.5q-23 0 -43.5 -8.5t-36 -23
t-24.5 -34.5t-9 -44q0 -48 32.5 -78.5t80.5 -30.5q24 0 44.5 8.5t36 23.5t24.5 34.5t9 42.5zM313 662q0 -23 -16.5 -39.5t-39.5 -16.5t-39 16.5t-16 39.5t16 40t39 17t39.5 -17t16.5 -40z" />
    <glyph glyph-name="ae" unicode="&#xe6;" horiz-adv-x="807" 
d="M761 297q0 43 -11.5 81t-35.5 66.5t-61.5 45t-89.5 16.5q-54 0 -94.5 -22t-62.5 -54h-1q-21 41 -61 59t-93 18q-50 0 -94 -10.5t-80 -25.5l9 -77q32 20 73.5 30.5t76.5 10.5q60 0 84.5 -28t24.5 -78v-37q-71 0 -126.5 -12.5t-93.5 -35.5t-58.5 -56t-20.5 -74
q0 -60 37.5 -91.5t99.5 -31.5q36 0 66 10t53.5 25.5t40.5 36t28 41.5l1 1q19 -48 69 -81t134 -33q94 0 168 31l-8 73q-30 -14 -69 -22.5t-77 -8.5q-79 0 -119 45t-37 145h325q3 25 3 43zM669 318h-233q8 55 41 88.5t82 33.5q53 0 82.5 -33.5t27.5 -88.5zM345 220
q0 -29 -9.5 -57.5t-27.5 -51t-43 -36t-55 -13.5q-35 0 -55.5 18.5t-20.5 49.5q0 17 8.5 34.5t32 32t64.5 23.5t106 9v-9z" />
    <glyph glyph-name="ccedilla" unicode="&#xe7;" horiz-adv-x="435" 
d="M403 19l-7 78q-24 -13 -55 -20t-63 -7q-41 0 -68.5 13.5t-44 37t-23 55.5t-6.5 68q0 85 37 136t112 51q29 0 56.5 -6t50.5 -15l10 79q-26 8 -55 12t-58 4q-62 0 -108.5 -20t-77.5 -56.5t-46.5 -86.5t-15.5 -110q0 -69 17.5 -114.5t47 -73.5t69 -39.5t84.5 -11.5
q44 0 81.5 8t62.5 18zM290 -51h-87q23 -42 14.5 -80.5t-56.5 -73.5l41 -37q41 22 64 46t32 48t6 48.5t-14 48.5z" />
    <glyph glyph-name="egrave" unicode="&#xe8;" horiz-adv-x="508" 
d="M462 297q0 43 -11.5 81t-35.5 66.5t-62 45t-90 16.5q-53 0 -94 -19.5t-69.5 -54.5t-43.5 -82.5t-15 -103.5q0 -132 60 -193.5t175 -61.5q94 0 168 31l-8 73q-30 -14 -68.5 -22.5t-76.5 -8.5q-80 0 -120 45t-37 145h325q3 25 3 43zM370 318h-232q8 55 40 88.5t81 33.5
q53 0 83 -33.5t28 -88.5zM329 626l-142 110l-46 -63l151 -99z" />
    <glyph glyph-name="eacute" unicode="&#xe9;" horiz-adv-x="508" 
d="M462 297q0 43 -11.5 81t-35.5 66.5t-62 45t-90 16.5q-53 0 -94 -19.5t-69.5 -54.5t-43.5 -82.5t-15 -103.5q0 -132 60 -193.5t175 -61.5q94 0 168 31l-8 73q-30 -14 -68.5 -22.5t-76.5 -8.5q-80 0 -120 45t-37 145h325q3 25 3 43zM370 318h-232q8 55 40 88.5t81 33.5
q53 0 83 -33.5t28 -88.5zM386 674l-45 62l-142 -111l36 -50z" />
    <glyph glyph-name="ecircumflex" unicode="&#xea;" horiz-adv-x="508" 
d="M462 297q0 43 -11.5 81t-35.5 66.5t-62 45t-90 16.5q-53 0 -94 -19.5t-69.5 -54.5t-43.5 -82.5t-15 -103.5q0 -132 60 -193.5t175 -61.5q94 0 168 31l-8 73q-30 -14 -68.5 -22.5t-76.5 -8.5q-80 0 -120 45t-37 145h325q3 25 3 43zM370 318h-232q8 55 40 88.5t81 33.5
q53 0 83 -33.5t28 -88.5zM403 633l-141 91l-136 -93l33 -52l102 68l106 -68z" />
    <glyph glyph-name="edieresis" unicode="&#xeb;" horiz-adv-x="508" 
d="M462 297q0 43 -11.5 81t-35.5 66.5t-62 45t-90 16.5q-53 0 -94 -19.5t-69.5 -54.5t-43.5 -82.5t-15 -103.5q0 -132 60 -193.5t175 -61.5q94 0 168 31l-8 73q-30 -14 -68.5 -22.5t-76.5 -8.5q-80 0 -120 45t-37 145h325q3 25 3 43zM370 318h-232q8 55 40 88.5t81 33.5
q53 0 83 -33.5t28 -88.5zM413 654q0 23 -15 38.5t-38 15.5t-38.5 -15.5t-15.5 -38.5t15.5 -38t38.5 -15t38 15t15 38zM221 654q0 23 -15 38.5t-38 15.5t-38.5 -15.5t-15.5 -38.5t15.5 -38t38.5 -15t38 15t15 38z" />
    <glyph glyph-name="igrave" unicode="&#xec;" horiz-adv-x="286" 
d="M215 626l-142 110l-46 -63l151 -99zM201 0v497q-44 2 -91.5 0t-85.5 -7v-53q22 -2 45.5 -4.5t41.5 -5.5v-427h90z" />
    <glyph glyph-name="iacute" unicode="&#xed;" horiz-adv-x="286" 
d="M245 674l-45 62l-143 -111l37 -50zM201 0v497q-44 2 -91.5 0t-85.5 -7v-53q22 -2 45.5 -4.5t41.5 -5.5v-427h90z" />
    <glyph glyph-name="icircumflex" unicode="&#xee;" horiz-adv-x="286" 
d="M286 633l-141 91l-137 -93l34 -52l101 68l107 -68zM201 0v497q-44 2 -91.5 0t-85.5 -7v-53q22 -2 45.5 -4.5t41.5 -5.5v-427h90z" />
    <glyph glyph-name="idieresis" unicode="&#xef;" horiz-adv-x="286" 
d="M293 654q0 23 -15.5 38.5t-38.5 15.5t-38.5 -15.5t-15.5 -38.5t15.5 -38t38.5 -15t38.5 15t15.5 38zM101 654q0 23 -15.5 38.5t-38.5 15.5t-38.5 -15.5t-15.5 -38.5t15.5 -38t38.5 -15t38.5 15t15.5 38zM201 0v497q-44 2 -91.5 0t-85.5 -7v-53q22 -2 45.5 -4.5t41.5 -5.5
v-427h90z" />
    <glyph glyph-name="ntilde" unicode="&#xf1;" horiz-adv-x="601" 
d="M198 497q-42 2 -89 0t-85 -7v-53q22 -2 45.5 -4.5t41.5 -5.5v-427h90v239q0 41 10.5 76.5t29 61.5t44.5 40.5t57 14.5q50 0 67.5 -29t17.5 -82v-321h90v348q0 33 -7.5 62t-25 50.5t-46 34t-71.5 12.5q-64 0 -108.5 -31.5t-66.5 -83.5l-2 1q5 22 6.5 52t1.5 52zM474 634
l-21 61q-14 -14 -31 -23t-38 -9q-20 0 -36 7.5t-31.5 16t-34 16t-43.5 7.5q-28 0 -53 -11.5t-43 -29.5l21 -60q14 14 30.5 23t36.5 9q21 0 37 -7.5t31.5 -16t34 -16t45.5 -7.5q29 0 54.5 12.5t40.5 27.5z" />
    <glyph glyph-name="ograve" unicode="&#xf2;" horiz-adv-x="545" 
d="M505 257q0 67 -17 114.5t-47 77.5t-71 43.5t-89 13.5q-56 0 -101 -20.5t-76.5 -56t-48 -83t-16.5 -102.5q0 -66 16 -113.5t45 -78.5t70 -46t92 -15q55 0 100 20.5t76.5 56.5t49 84.5t17.5 104.5zM411 252q0 -48 -11 -82.5t-30 -57.5t-44 -34t-53 -11q-69 0 -104.5 47.5
t-35.5 138.5q0 46 11.5 79.5t31 55.5t45 32.5t52.5 10.5q69 0 103.5 -47t34.5 -132zM347 626l-142 110l-46 -63l151 -99z" />
    <glyph glyph-name="oacute" unicode="&#xf3;" horiz-adv-x="545" 
d="M505 257q0 67 -17 114.5t-47 77.5t-71 43.5t-89 13.5q-56 0 -101 -20.5t-76.5 -56t-48 -83t-16.5 -102.5q0 -66 16 -113.5t45 -78.5t70 -46t92 -15q55 0 100 20.5t76.5 56.5t49 84.5t17.5 104.5zM411 252q0 -48 -11 -82.5t-30 -57.5t-44 -34t-53 -11q-69 0 -104.5 47.5
t-35.5 138.5q0 46 11.5 79.5t31 55.5t45 32.5t52.5 10.5q69 0 103.5 -47t34.5 -132zM400 674l-45 62l-142 -111l36 -50z" />
    <glyph glyph-name="ocircumflex" unicode="&#xf4;" horiz-adv-x="545" 
d="M505 257q0 67 -17 114.5t-47 77.5t-71 43.5t-89 13.5q-56 0 -101 -20.5t-76.5 -56t-48 -83t-16.5 -102.5q0 -66 16 -113.5t45 -78.5t70 -46t92 -15q55 0 100 20.5t76.5 56.5t49 84.5t17.5 104.5zM411 252q0 -48 -11 -82.5t-30 -57.5t-44 -34t-53 -11q-69 0 -104.5 47.5
t-35.5 138.5q0 46 11.5 79.5t31 55.5t45 32.5t52.5 10.5q69 0 103.5 -47t34.5 -132zM413 633l-141 91l-136 -93l33 -52l102 68l106 -68z" />
    <glyph glyph-name="otilde" unicode="&#xf5;" horiz-adv-x="545" 
d="M505 257q0 67 -17 114.5t-47 77.5t-71 43.5t-89 13.5q-56 0 -101 -20.5t-76.5 -56t-48 -83t-16.5 -102.5q0 -66 16 -113.5t45 -78.5t70 -46t92 -15q55 0 100 20.5t76.5 56.5t49 84.5t17.5 104.5zM411 252q0 -48 -11 -82.5t-30 -57.5t-44 -34t-53 -11q-69 0 -104.5 47.5
t-35.5 138.5q0 46 11.5 79.5t31 55.5t45 32.5t52.5 10.5q69 0 103.5 -47t34.5 -132zM440 634l-21 61q-14 -14 -31 -23t-38 -9q-20 0 -36 7.5t-31.5 16t-34 16t-43.5 7.5q-28 0 -53 -11.5t-43 -29.5l21 -60q14 14 30.5 23t36.5 9q21 0 37 -7.5t31.5 -16t34 -16t45.5 -7.5
q29 0 54.5 12.5t40.5 27.5z" />
    <glyph glyph-name="odieresis" unicode="&#xf6;" horiz-adv-x="545" 
d="M505 257q0 67 -17 114.5t-47 77.5t-71 43.5t-89 13.5q-56 0 -101 -20.5t-76.5 -56t-48 -83t-16.5 -102.5q0 -66 16 -113.5t45 -78.5t70 -46t92 -15q55 0 100 20.5t76.5 56.5t49 84.5t17.5 104.5zM411 252q0 -48 -11 -82.5t-30 -57.5t-44 -34t-53 -11q-69 0 -104.5 47.5
t-35.5 138.5q0 46 11.5 79.5t31 55.5t45 32.5t52.5 10.5q69 0 103.5 -47t34.5 -132zM422 654q0 23 -15 38.5t-38 15.5t-38.5 -15.5t-15.5 -38.5t15.5 -38t38.5 -15t38 15t15 38zM230 654q0 23 -15 38.5t-38 15.5t-38.5 -15.5t-15.5 -38.5t15.5 -38t38.5 -15t38 15t15 38z
" />
    <glyph glyph-name="divide" unicode="&#xf7;" horiz-adv-x="587" 
d="M354 459q0 25 -17.5 42.5t-42.5 17.5q-26 0 -43.5 -17.5t-17.5 -42.5q0 -26 17.5 -43.5t43.5 -17.5q25 0 42.5 17.5t17.5 43.5zM541 220v76h-495v-76h495zM354 56q0 25 -17.5 42.5t-42.5 17.5q-26 0 -43.5 -17.5t-17.5 -42.5q0 -26 17.5 -43.5t43.5 -17.5q25 0 42.5 17.5
t17.5 43.5z" />
    <glyph glyph-name="oslash" unicode="&#xf8;" horiz-adv-x="543" 
d="M499 257q0 48 -9 85t-24.5 65t-36.5 47t-46 31l36 92l-59 19l-36 -93q-11 2 -23.5 3t-24.5 1q-56 0 -100.5 -20t-75.5 -55.5t-47.5 -83.5t-16.5 -103q0 -76 24.5 -135.5t78.5 -90.5l-41 -104l59 -19l39 103q28 -9 63 -9q55 0 99 20.5t75.5 56.5t48.5 84.5t17 105.5z
M413 253q0 -48 -11.5 -83.5t-30 -58.5t-43 -34.5t-51.5 -12.5q-29 -2 -53 8l128 335q61 -42 61 -154zM297 431l-125 -328q-25 23 -37.5 61.5t-12.5 86.5q0 49 12 83t31.5 56t44 32.5t49.5 11.5q20 0 38 -3z" />
    <glyph glyph-name="ugrave" unicode="&#xf9;" horiz-adv-x="617" 
d="M600 7v53q-22 2 -45.5 4.5t-41.5 5.5v427h-89v-239q0 -41 -10.5 -76.5t-29.5 -61.5t-45 -40.5t-57 -14.5q-49 0 -67 29t-18 82v321q-42 2 -89.5 0t-86.5 -7v-53q22 -2 45.5 -4.5t41.5 -5.5v-278q0 -33 7 -62t24.5 -50.5t46 -34t71.5 -12.5q64 0 108.5 31.5t66.5 83.5
l2 -1q-4 -23 -6 -52.5t-2 -51.5q42 -2 89 0t85 7zM360 626l-142 110l-46 -63l151 -99z" />
    <glyph glyph-name="uacute" unicode="&#xfa;" horiz-adv-x="617" 
d="M600 7v53q-22 2 -45.5 4.5t-41.5 5.5v427h-89v-239q0 -41 -10.5 -76.5t-29.5 -61.5t-45 -40.5t-57 -14.5q-49 0 -67 29t-18 82v321q-42 2 -89.5 0t-86.5 -7v-53q22 -2 45.5 -4.5t41.5 -5.5v-278q0 -33 7 -62t24.5 -50.5t46 -34t71.5 -12.5q64 0 108.5 31.5t66.5 83.5
l2 -1q-4 -23 -6 -52.5t-2 -51.5q42 -2 89 0t85 7zM437 674l-45 62l-142 -111l36 -50z" />
    <glyph glyph-name="ucircumflex" unicode="&#xfb;" horiz-adv-x="617" 
d="M600 7v53q-22 2 -45.5 4.5t-41.5 5.5v427h-89v-239q0 -41 -10.5 -76.5t-29.5 -61.5t-45 -40.5t-57 -14.5q-49 0 -67 29t-18 82v321q-42 2 -89.5 0t-86.5 -7v-53q22 -2 45.5 -4.5t41.5 -5.5v-278q0 -33 7 -62t24.5 -50.5t46 -34t71.5 -12.5q64 0 108.5 31.5t66.5 83.5
l2 -1q-4 -23 -6 -52.5t-2 -51.5q42 -2 89 0t85 7zM447 633l-141 91l-136 -93l33 -52l102 68l106 -68z" />
    <glyph glyph-name="udieresis" unicode="&#xfc;" horiz-adv-x="617" 
d="M600 7v53q-22 2 -45.5 4.5t-41.5 5.5v427h-89v-239q0 -41 -10.5 -76.5t-29.5 -61.5t-45 -40.5t-57 -14.5q-49 0 -67 29t-18 82v321q-42 2 -89.5 0t-86.5 -7v-53q22 -2 45.5 -4.5t41.5 -5.5v-278q0 -33 7 -62t24.5 -50.5t46 -34t71.5 -12.5q64 0 108.5 31.5t66.5 83.5
l2 -1q-4 -23 -6 -52.5t-2 -51.5q42 -2 89 0t85 7zM455 654q0 23 -15 38.5t-38 15.5t-38.5 -15.5t-15.5 -38.5t15.5 -38t38.5 -15t38 15t15 38zM263 654q0 23 -15 38.5t-38 15.5t-38.5 -15.5t-15.5 -38.5t15.5 -38t38.5 -15t38 15t15 38z" />
    <glyph glyph-name="ydieresis" unicode="&#xff;" horiz-adv-x="480" 
d="M472 497h-98l-80 -228q-7 -21 -14.5 -42.5t-14 -41.5t-12 -38t-8.5 -31h-2q-8 29 -17 59t-21 64l-94 258h-102l188 -497l-21 -56q-13 -36 -25.5 -59.5t-26.5 -37t-30 -19t-37 -5.5q-34 0 -64 10l-8 -81q15 -2 33 -4t32 -2q41 0 71.5 10t55.5 34t45.5 63t42.5 97zM390 654
q0 23 -15 38.5t-38 15.5t-38.5 -15.5t-15.5 -38.5t15.5 -38t38.5 -15t38 15t15 38zM198 654q0 23 -15 38.5t-38 15.5t-38.5 -15.5t-15.5 -38.5t15.5 -38t38.5 -15t38 15t15 38z" />
    <glyph glyph-name="dotlessi" unicode="&#x131;" horiz-adv-x="286" 
d="M201 497q-44 2 -91.5 0t-85.5 -7v-53q22 -2 45.5 -4.5t41.5 -5.5v-427h90v497z" />
    <glyph glyph-name="OE" unicode="&#x152;" horiz-adv-x="832" 
d="M763 0v77h-256v234h243v74h-243v214h256v76h-277q-30 0 -61 2.5t-69 2.5q-65 0 -122 -23.5t-100 -68.5t-67.5 -109.5t-24.5 -146.5q0 -74 17.5 -136t53.5 -107t92 -70t133 -25q39 0 73.5 3t76.5 3h275zM418 80q-14 -3 -31 -4.5t-34 -1.5q-59 0 -100 21t-66.5 57t-37 84.5
t-11.5 104.5q0 62 17 110.5t46 82t68 51t83 17.5q34 0 66 -6v-516z" />
    <glyph glyph-name="oe" unicode="&#x153;" horiz-adv-x="872" 
d="M826 297q0 43 -11.5 81t-35.5 66.5t-61.5 45t-89.5 16.5q-60 0 -102.5 -26t-68.5 -68q-26 49 -74 71.5t-104 22.5t-100.5 -20t-75.5 -55t-47.5 -82.5t-16.5 -102.5q0 -56 13 -103t40.5 -81t69.5 -52.5t99 -18.5q67 0 112.5 28.5t71.5 72.5q24 -48 70.5 -74.5t124.5 -26.5
q94 0 168 31l-7 73q-29 -14 -69 -22.5t-78 -8.5q-79 0 -119 45t-37 145h325q3 25 3 43zM734 318h-233q8 54 41 88t82 34q53 0 82.5 -33.5t27.5 -88.5zM411 252q0 -48 -11.5 -83t-30.5 -58.5t-44.5 -34.5t-53.5 -11q-38 0 -65.5 14t-44.5 39t-25 59t-8 74q0 51 13 85.5t33 56
t45.5 31t50.5 9.5q72 0 106.5 -46.5t34.5 -134.5z" />
    <glyph glyph-name="scaron" unicode="&#x161;" horiz-adv-x="556" 
d="M515 -72q0 68 -44 105t-125 37h-92q-45 0 -65 9t-20 30q0 12 8 23t24 19q14 -4 30 -5.5t31 -1.5q54 0 95 14t68.5 38.5t41 58.5t13.5 74q0 32 -11 57t-31 40h84v71h-169q-38 9 -78 9q-52 0 -93 -15t-69 -41.5t-42.5 -61.5t-14.5 -74q0 -50 19 -85.5t54 -55.5
q-25 -13 -40 -35.5t-15 -48.5q0 -25 13 -43.5t36 -29.5q-34 -17 -58 -50.5t-24 -78.5q0 -72 56 -109t153 -37q58 0 107 14.5t84 39.5t54.5 59.5t19.5 73.5zM391 323q0 -56 -33 -85t-90 -29q-59 0 -91 29t-32 85q0 51 33 83.5t93 32.5q58 0 89 -31t31 -85zM425 -83
q0 -46 -42 -75t-119 -29q-58 0 -95.5 23t-37.5 68q0 29 17 52.5t46 38.5h29h98q53 0 78.5 -21t25.5 -57z" />
    <glyph glyph-name="Ydieresis" unicode="&#x178;" horiz-adv-x="537" 
d="M527 675h-96l-104 -216q-16 -33 -31 -65.5t-27 -63.5h-1q-23 57 -51 117l-107 228h-101l211 -432v-243h92v243zM416 793q0 23 -15 38.5t-38 15.5t-38.5 -15.5t-15.5 -38.5t15.5 -38t38.5 -15t38 15t15 38zM224 793q0 23 -15 38.5t-38 15.5t-38.5 -15.5t-15.5 -38.5
t15.5 -38t38.5 -15t38 15t15 38z" />
    <glyph glyph-name="florin" unicode="&#x192;" horiz-adv-x="428" 
d="M227 356h134v69h-128l12 124q5 61 27.5 88.5t67.5 27.5q16 0 32.5 -1.5t30.5 -5.5l5 75q-36 6 -66 6q-45 0 -78.5 -11t-56 -35.5t-35.5 -63t-18 -92.5l-11 -112h-101v-69h95l-35 -376q-6 -61 -27.5 -90.5t-67.5 -29.5q-15 0 -32.5 1.5t-31.5 5.5l-5 -76q36 -6 67 -6
q45 0 78.5 11t56 36t35.5 66t19 101z" />
    <glyph glyph-name="circumflex" unicode="&#x2c6;" horiz-adv-x="433" 
d="M355 633l-141 91l-136 -93l33 -52l102 68l106 -68z" />
    <glyph glyph-name="caron" unicode="&#x2c7;" horiz-adv-x="433" 
d="M349 672l-34 51l-101 -68l-107 68l-36 -54l141 -91z" />
    <glyph glyph-name="breve" unicode="&#x2d8;" horiz-adv-x="400" 
d="M325 719h-63q0 -32 -17 -49t-46 -17q-31 0 -46.5 19.5t-15.5 46.5h-62q0 -26 7 -50t21.5 -43t38 -30t56.5 -11t57 11t39.5 29.5t23 43t7.5 50.5z" />
    <glyph glyph-name="dotaccent" unicode="&#x2d9;" horiz-adv-x="283" 
d="M200 656q0 24 -17.5 41t-41.5 17q-23 0 -40.5 -17t-17.5 -41q0 -25 17.5 -41.5t40.5 -16.5q25 0 42 17t17 41z" />
    <glyph glyph-name="ring" unicode="&#x2da;" horiz-adv-x="383" 
d="M305 651q0 24 -9 44t-24 34.5t-36 23t-45 8.5q-23 0 -43.5 -8.5t-36 -23t-24.5 -34.5t-9 -44q0 -48 32.5 -78.5t80.5 -30.5q24 0 44.5 8.5t36 23.5t24.5 34.5t9 42.5zM247 651q0 -23 -16.5 -39.5t-39.5 -16.5t-39 16.5t-16 39.5t16 40t39 17t39.5 -17t16.5 -40z" />
    <glyph glyph-name="ogonek" unicode="&#x2db;" horiz-adv-x="259" 
d="M218 -215v56q-53 -11 -70.5 2.5t-17.5 41.5q0 24 11 56.5t25 58.5h-66q-20 -32 -33 -68t-13 -68q0 -40 21.5 -64t78.5 -24q35 0 64 9z" />
    <glyph glyph-name="tilde" unicode="&#x2dc;" horiz-adv-x="496" 
d="M422 634l-21 61q-14 -14 -31 -23t-38 -9q-20 0 -36 7.5t-31.5 16t-34 16t-43.5 7.5q-28 0 -53 -11.5t-43 -29.5l21 -60q14 14 30.5 23t36.5 9q21 0 37 -7.5t31.5 -16t34 -16t45.5 -7.5q29 0 54.5 12.5t40.5 27.5z" />
    <glyph glyph-name="hungarumlaut" unicode="&#x2dd;" horiz-adv-x="493" 
d="M440 679l-48 61l-144 -116l39 -50zM248 697l-58 52l-118 -132l47 -43z" />
    <glyph glyph-name="Delta" unicode="&#x394;" horiz-adv-x="730" 
d="M698 0l-287 700h-95l-283 -700h665zM565 81h-407l201 513z" />
    <glyph glyph-name="Omega" unicode="&#x3a9;" horiz-adv-x="749" 
d="M680 0v68h-148q65 42 105 117.5t40 173.5q0 79 -22 140.5t-61 102.5t-93.5 62.5t-119.5 21.5q-70 0 -127.5 -25t-98 -69.5t-63 -106.5t-22.5 -135q0 -93 36 -165t104 -117h-145v-68h236v70q-75 51 -108.5 118t-33.5 165q0 58 15 106t43.5 82.5t68.5 53.5t90 19
q52 0 91 -20.5t65 -56.5t39.5 -84.5t13.5 -103.5q0 -101 -37 -169t-102 -111v-69h234z" />
    <glyph glyph-name="pi" unicode="&#x3c0;" horiz-adv-x="672" 
d="M621 1l-6 66q-12 -3 -26 -5.5t-28 -2.5q-18 0 -29.5 4.5t-17.5 19t-8 41.5t-2 72v229h109v72h-573v-72h109v-425h86v425h183v-296q0 -35 5 -61t17.5 -43t33.5 -25.5t53 -8.5q26 0 50.5 2.5t43.5 7.5z" />
    <glyph glyph-name="endash" unicode="&#x2013;" horiz-adv-x="500" 
d="M500 250v78h-500v-78h500z" />
    <glyph glyph-name="emdash" unicode="&#x2014;" horiz-adv-x="1000" 
d="M1000 250v78h-1000v-78h1000z" />
    <glyph glyph-name="quoteleft" unicode="&#x2018;" horiz-adv-x="243" 
d="M164 750q-58 -53 -83 -101.5t-26.5 -85.5t16.5 -59t45 -22q18 0 31.5 9t19.5 22.5t4.5 29t-11.5 29.5q-17 22 -11 56.5t54 86.5z" />
    <glyph glyph-name="quoteright" unicode="&#x2019;" horiz-adv-x="243" 
d="M78 475q58 53 83 101.5t26.5 85.5t-16.5 59t-45 22q-18 0 -31.5 -9t-19.5 -22.5t-5 -29.5t12 -29q17 -22 11 -56.5t-54 -86.5z" />
    <glyph glyph-name="quotesinglbase" unicode="&#x201a;" horiz-adv-x="243" 
d="M78 -154q58 53 83 101.5t26.5 85t-16.5 58.5t-45 22q-18 0 -31.5 -9t-19.5 -22.5t-5 -29t12 -28.5q17 -22 11 -57t-54 -87z" />
    <glyph glyph-name="quotedblleft" unicode="&#x201c;" horiz-adv-x="433" 
d="M393 715l-39 35q-58 -53 -83 -101.5t-26.5 -85.5t16.5 -59t45 -22q18 0 31.5 9t19.5 22.5t4.5 29t-11.5 29.5q-17 22 -11 56.5t54 86.5zM203 715l-39 35q-58 -53 -83 -101.5t-26.5 -85.5t16.5 -59t45 -22q18 0 31.5 9t19.5 22.5t4.5 29t-11.5 29.5q-17 22 -11 56.5
t54 86.5z" />
    <glyph glyph-name="quotedblright" unicode="&#x201d;" horiz-adv-x="433" 
d="M78 475q58 53 83 101.5t26.5 85.5t-16.5 59t-45 22q-18 0 -31.5 -9t-19.5 -22.5t-5 -29.5t12 -29q17 -22 11 -56.5t-54 -86.5zM268 475q58 53 83 101.5t26.5 85.5t-16.5 59t-45 22q-18 0 -31.5 -9t-19.5 -22.5t-5 -29.5t12 -29q17 -22 11 -56.5t-54 -86.5z" />
    <glyph glyph-name="quotedblbase" unicode="&#x201e;" horiz-adv-x="433" 
d="M78 -154q58 53 83 101.5t26.5 85t-16.5 58.5t-45 22q-18 0 -31.5 -9t-19.5 -22.5t-5 -29t12 -28.5q17 -22 11 -57t-54 -87zM268 -154q58 53 83 101.5t26.5 85t-16.5 58.5t-45 22q-18 0 -31.5 -9t-19.5 -22.5t-5 -29t12 -28.5q17 -22 11 -57t-54 -87z" />
    <glyph glyph-name="dagger" unicode="&#x2020;" horiz-adv-x="469" 
d="M427 482v70h-157l19 178h-109l19 -178h-158v-70h158l-19 -146l23 -339h62l24 339l-19 146h157z" />
    <glyph glyph-name="daggerdbl" unicode="&#x2021;" horiz-adv-x="469" 
d="M427 184v70h-157l19 117l-19 117h157v70h-157l19 172h-109l18 -172h-157v-70h157l-18 -117l18 -117h-157v-70h157l-19 -184h110l-19 184h157z" />
    <glyph glyph-name="bullet" unicode="&#x2022;" horiz-adv-x="430" 
d="M209 413q-25 0 -46.5 -9.5t-38 -26t-26 -38.5t-9.5 -47t9.5 -47t26 -38.5t38 -26t46.5 -9.5t47 9.5t38.5 26t26 38.5t9.5 47t-9.5 47t-26 38.5t-38.5 26t-47 9.5z" />
    <glyph glyph-name="ellipsis" unicode="&#x2026;" horiz-adv-x="676" 
d="M114 115q-26 0 -44 -18t-18 -44t18 -44t44 -18t44 18t18 44t-18 44t-44 18zM333 115q-26 0 -44 -18t-18 -44t18 -44t44 -18t44 18t18 44t-18 44t-44 18zM552 115q-26 0 -44 -18t-18 -44t18 -44t44 -18t44 18t18 44t-18 44t-44 18z" />
    <glyph glyph-name="perthousand" unicode="&#x2030;" horiz-adv-x="1050" 
d="M335 533q0 43 -10.5 72.5t-29.5 48.5t-45.5 27.5t-57.5 8.5q-30 0 -57 -11.5t-47.5 -33.5t-32.5 -54t-12 -72q0 -83 38 -120.5t101 -37.5q31 0 59 12t49 34t33 54t12 72zM257 527q0 -48 -17.5 -74.5t-52.5 -26.5q-37 0 -52 25t-15 75q0 45 18.5 72t50.5 27q38 0 53 -23.5
t15 -74.5zM663 158q0 42 -10.5 72t-29.5 48.5t-45.5 27t-57.5 8.5q-30 0 -57 -11.5t-47.5 -33.5t-32.5 -54t-12 -72q0 -83 38 -120.5t101 -37.5q31 0 59 12t49 34.5t33 54.5t12 72zM585 151q0 -47 -18 -74t-53 -27q-36 0 -51 25t-15 75q0 45 18 72t50 27q39 0 54 -23t15 -75
zM996 158q0 42 -10.5 72t-29.5 48.5t-45 27t-57 8.5q-30 0 -57 -11.5t-48 -33.5t-33 -54t-12 -72q0 -83 38.5 -120.5t101.5 -37.5q31 0 59 12t48.5 34.5t32.5 54.5t12 72zM919 151q0 -47 -18 -74t-53 -27q-37 0 -52 25t-15 75q0 45 18.5 72t50.5 27q38 0 53.5 -23t15.5 -75z
M619 652l-64 46l-470 -675l64 -46z" />
    <glyph glyph-name="guilsinglleft" unicode="&#x2039;" horiz-adv-x="313" 
d="M241 389l-67 38l-121 -181l118 -178l69 39l-98 140z" />
    <glyph glyph-name="guilsinglright" unicode="&#x203a;" horiz-adv-x="313" 
d="M260 249l-118 178l-69 -39l98 -140l-99 -142l67 -38z" />
    <glyph glyph-name="Euro" unicode="&#x20ac;" horiz-adv-x="550" 
d="M513 17l-17 72q-23 -9 -57.5 -15t-64.5 -6q-79 0 -119.5 40.5t-53.5 121.5h188v59h-194q0 11 -0.5 22.5t-0.5 23.5t0.5 23t1.5 22h193v58h-187q15 91 58.5 131.5t111.5 40.5q30 0 62 -5t54 -12l16 77q-25 6 -57.5 10.5t-63.5 4.5q-112 0 -182.5 -59t-93.5 -188h-94v-58
h87q-1 -14 -1.5 -29t-0.5 -31v-16q0 -7 1 -15h-86v-59h90q16 -119 76.5 -179.5t175.5 -60.5q42 0 82.5 7t75.5 20z" />
    <glyph glyph-name="trademark" unicode="&#x2122;" horiz-adv-x="699" 
d="M647 394l-43 281h-86l-47 -158l-9 -42l-10 46l-45 154h-86l-44 -281h64l24 164l3 37l11 -44l44 -157h69l45 155l12 46l7 -54l22 -147h69zM260 620v55h-216v-55h74v-226h69v226h73z" />
    <glyph glyph-name="partialdiff" unicode="&#x2202;" horiz-adv-x="889" 
d="M846 272q0 115 -47.5 174.5t-135.5 59.5q-57 0 -101 -29t-64 -82l-1 1q4 19 6 45t2 48v233q-42 7 -85.5 11t-81.5 4q-119 0 -174 -49.5t-55 -133.5v-57h-102v-70h102v-427h90v427h135v70h-135v49q0 62 32 90t98 28q22 0 43 -2t43 -6v-643q40 -11 79 -15.5t93 -4.5
q60 0 108 19t81.5 55t51.5 88t18 117zM751 264q0 -54 -11.5 -92t-32 -62t-49.5 -35t-64 -11q-50 0 -89 12v165q0 32 8.5 66t25.5 61.5t42.5 45.5t59.5 18q57 0 83.5 -43.5t26.5 -124.5z" />
    <glyph glyph-name="product" unicode="&#x220f;" horiz-adv-x="589" 
d="M505 -55v552h-306v32q0 64 33.5 99t110.5 35q27 0 60 -5.5t61 -14.5l17 75q-32 8 -67 13.5t-73 5.5q-119 0 -175.5 -56t-56.5 -162v-22h-102v-70h102v-427h90v427h216v-490q0 -33 -3.5 -55.5t-12.5 -35.5t-24.5 -18.5t-38.5 -5.5q-17 0 -33 3.5t-30 8.5l-8 -79
q15 -5 33.5 -7t34.5 -2q49 0 82 12.5t53 37t28.5 62t8.5 87.5z" />
    <glyph glyph-name="summation" unicode="&#x2211;" horiz-adv-x="905" 
d="M821 0v348q0 33 -7.5 62t-24.5 50.5t-45.5 34t-71.5 12.5q-63 0 -107 -30.5t-66 -81.5l-2 1q5 20 6.5 47.5t1.5 51.5v227q-42 7 -85.5 11t-81.5 4q-119 0 -174 -49.5t-55 -133.5v-57h-102v-70h102v-427h90v427h135v70h-135v49q0 62 32 90t98 28q22 0 43 -2t43 -6v-656h90
v239q0 41 10.5 76.5t29.5 61.5t45 40.5t57 14.5q49 0 66.5 -29t17.5 -82v-321h90z" />
    <glyph glyph-name="fraction" unicode="&#x2215;" horiz-adv-x="419" 
d="M491 721l-72 35l-431 -843l72 -35z" />
    <glyph glyph-name="radical" unicode="&#x221a;" horiz-adv-x="608" 
d="M579 758h-97l-158 -558q-15 -51 -27 -106h-2q-8 29 -16.5 57.5t-17.5 56.5l-95 289h-165v-68h92l148 -429h104z" />
    <glyph glyph-name="infinity" unicode="&#x221e;" horiz-adv-x="975" 
d="M918 276q0 34 -11.5 64t-34 52t-56 35t-77.5 13q-32 0 -64.5 -10t-64 -26t-61.5 -37t-58 -42q-64 48 -126 81.5t-125 33.5q-42 0 -75.5 -13.5t-57.5 -36.5t-37 -54.5t-13 -67.5q0 -33 11 -63t33 -52.5t55.5 -35.5t78.5 -13q33 0 65.5 10t63.5 26t61 36.5t59 41.5
q66 -49 127 -81.5t121 -32.5q45 0 79.5 14t58 37.5t36 54.5t12.5 66zM828 272q0 -36 -23 -62.5t-68 -26.5q-40 0 -84 26.5t-95 64.5q49 36 93.5 61.5t82.5 25.5q46 0 70 -25.5t24 -63.5zM417 270q-50 -37 -93.5 -62t-82.5 -25q-46 0 -70 25.5t-24 64.5q0 35 23 61.5t68 26.5
q40 0 84 -26.5t95 -64.5z" />
    <glyph glyph-name="integral" unicode="&#x222b;" horiz-adv-x="824" 
d="M415 656v-656h90v256l184 -256h116l-206 270l191 227h-110l-175 -218v443q-42 7 -85.5 11t-81.5 4q-119 0 -174 -49.5t-55 -133.5v-57h-102v-70h102v-427h90v427h135v70h-135v49q0 62 32 90t98 28q22 0 43 -2t43 -6z" />
    <glyph glyph-name="approxequal" unicode="&#x2248;" horiz-adv-x="600" 
d="M528 328l-30 62q-23 -20 -46.5 -32t-49.5 -12q-27 0 -49 9.5t-44.5 21t-48 21t-59.5 9.5q-41 0 -74.5 -17.5t-56.5 -39.5l29 -62q17 14 42 28t56 14t53 -9t43.5 -20.5t46 -20.5t59.5 -9q42 0 74 17t55 40zM528 149l-29 62q-47 -39 -96 -39q-30 0 -53 9.5t-45.5 21
t-47.5 21t-59 9.5q-42 0 -74 -18.5t-54 -38.5l30 -62q17 14 41.5 28t55.5 14q30 0 51.5 -9.5t43 -20.5t46.5 -20.5t61 -9.5q38 0 72 16.5t57 36.5z" />
    <glyph glyph-name="lozenge" unicode="&#x25ca;" horiz-adv-x="619" 
d="M585 335l-250 349h-55l-246 -343l250 -350h57zM488 330l-173 -239l-182 252l171 242z" />
    <glyph glyph-name="apple" unicode="&#xf8ff;" horiz-adv-x="1963" 
d="M208 464q-3 -23 -2.5 -47t2.5 -47l195 14q-2 33 0 67zM409 925l148 -128q10 11 22.5 23t23.5 22l-129 148q-34 -30 -65 -65zM1015 974l13 193q-45 5 -92 0l13 -194q16 2 32 2q17 0 34 -1zM1361 843q11 -9 23.5 -21.5t23.5 -24.5l145 126q-28 34 -65 66zM1755 464
l-193 -13q2 -34 0 -67l194 -14q2 23 1.5 46.5t-2.5 47.5zM1356 417q0 78 -29.5 146t-80.5 119t-119 80.5t-145 29.5q-78 0 -146.5 -29.5t-119.5 -80.5t-80.5 -119t-29.5 -146t29.5 -145t75.5 -115v-121l29 -71l-53 -13l48 -116l-48 -13l79 -188h79q4 -29 42.5 -48.5
t94.5 -19.5q55 0 93.5 19.5t43.5 48.5h79l46 105l-16 39l47 12l-46 111l46 12l-49 115l26 7v121q45 44 74.5 111.5t29.5 148.5zM788 190q-51 42 -78 101.5t-27 125.5q0 62 23.5 116t64 94.5t95 64t116.5 23.5q61 0 115.5 -23.5t95 -64t64 -94.5t23.5 -116q0 -37 -8.5 -70
t-23 -62t-33.5 -53t-40 -42h-92l23 213q20 -5 34.5 -9t26.5 -9q11 -3 16.5 6.5t7 23t-1.5 26t-10 14.5q-45 14 -94.5 22.5t-102.5 8.5q-51 0 -101 -8.5t-95 -22.5q-7 -2 -10 -14.5t-2 -26t7 -23t17 -6.5q11 4 24 8.5t33 9.5l26 -213h-93zM1050 413l-21 -223h-95l-22 223
q20 4 38 4.5t32 0.5q16 0 32 -0.5t36 -4.5zM1177 128v-52l-366 -93l-25 59v86h391zM1182 -51l-376 -95l-26 62l375 96zM1183 -174l-163 -41l19 -51l117 29l9 -21l-22 -51h-322l-40 97l377 96zM967 448h-3v7h1v-6h2v-1zM973 453v-4q0 -2 -2 -2t-2 2v4h1v-4q0 -1 1 -1t1 1v4h1
zM978 448q-3 -2 -3.5 2.5t3.5 2.5v-1q-2 2 -2 -2q0 -3 2 -1v-1zM981 446q-1 5 0 10h1q-1 -5 0 -10h-1zM987 449q-1 -2 -2 -2t-1 2t3 2q0 2 -3 1v1q4 2 4 -1v-4h-1v1zM987 450q-2 0 -2 -1t1 -0.5t1 1.5zM994 450q0 -2 -4 -2v1q3 0 3 1t-1.5 0.5t-1.5 1.5t4 2v-1q-3 0 -3 -1
t1.5 -0.5t1.5 -1.5zM997 446h-1q1 5 0 10h1q1 -5 0 -10z" />
    <glyph glyph-name="ff" unicode="&#xfb00;" horiz-adv-x="652" 
d="M684 727q-41 9 -81 9q-80 0 -124 -35q-35 14 -74 20.5t-77 6.5q-62 0 -104 -17t-67.5 -45.5t-36.5 -65.5t-11 -78v-25h-102v-70h102v-427h90v427h213v-427h90v427h138v70h-138v38q0 66 24 97t77 31q18 0 37 -2.5t37 -8.5zM432 633q-20 -40 -20 -99v-37h-213v34
q0 61 29.5 92.5t94.5 31.5q26 0 53.5 -5t55.5 -17z" />
    <glyph glyph-name="fi" unicode="&#xfb01;" horiz-adv-x="590" 
d="M505 0v497h-306v32q0 64 33.5 99t110.5 35q27 0 60 -5.5t61 -14.5l17 75q-32 8 -67 13.5t-73 5.5q-119 0 -175.5 -56t-56.5 -162v-22h-102v-70h102v-427h90v427h216v-427h90z" />
    <glyph glyph-name="fl" unicode="&#xfb02;" horiz-adv-x="590" 
d="M505 0v722q-42 7 -85.5 11t-81.5 4q-119 0 -174 -49.5t-55 -133.5v-57h-102v-70h102v-427h90v427h135v70h-135v49q0 62 32 90t98 28q22 0 43 -2t43 -6v-656h90z" />
    <glyph glyph-name="ffi" unicode="&#xfb03;" horiz-adv-x="891" 
d="M808 0v497h-306v32q0 64 34 99t111 35q27 0 60 -5.5t62 -14.5l18 75q-34 8 -69 13.5t-73 5.5q-55 0 -93.5 -11t-64.5 -30q-33 15 -73 23.5t-85 8.5q-62 0 -104.5 -16.5t-68 -45t-36.5 -66t-11 -78.5v-25h-102v-70h102v-427h90v427h213v-427h90v427h216v-427h90zM437 632
q-15 -26 -20 -55.5t-5 -57.5v-22h-213v34q0 61 29.5 92.5t94.5 31.5q28 0 55.5 -5t58.5 -18z" />
    <glyph glyph-name="ffl" unicode="&#xfb04;" horiz-adv-x="891" 
d="M808 0v722q-43 7 -86.5 11t-81.5 4q-52 0 -91 -10t-67 -29q-32 14 -70.5 22t-82.5 8q-62 0 -104.5 -16.5t-68 -45t-36.5 -66t-11 -78.5v-25h-102v-70h102v-427h90v427h213v-427h90v427h134v70h-134v49q0 62 31.5 90t98.5 28q40 0 86 -8v-656h90zM431 635q-19 -34 -19 -81
v-57h-213v34q0 61 29.5 92.5t94.5 31.5q26 0 52.5 -4t55.5 -16z" />
    </font>
</defs>
</svg>
